<?xml version="1.0" standalone="no"?>
<!DOCTYPE svg PUBLIC "-//W3C//DTD SVG 20010904//EN"
 "http://www.w3.org/TR/2001/REC-SVG-20010904/DTD/svg10.dtd">
<svg version="1.0" xmlns="http://www.w3.org/2000/svg"
 width="1024.000000pt" height="1024.000000pt" viewBox="0 0 1024.000000 1024.000000"
 preserveAspectRatio="xMidYMid meet">

<g transform="translate(0.000000,1024.000000) scale(0.100000,-0.100000)"
fill="#000000" stroke="none">
<path d="M0 5120 l0 -5120 5120 0 5120 0 0 5120 0 5120 -5120 0 -5120 0 0
-5120z m5245 3990 c345 -32 681 -133 937 -280 110 -64 248 -151 248 -157 0 -3
-37 -3 -82 1 -152 12 -461 -19 -603 -61 -13 -4 11 -12 65 -24 47 -9 122 -29
166 -44 l81 -27 184 46 c228 56 751 147 765 133 3 -3 -23 -11 -58 -19 -111
-26 -732 -189 -737 -193 -2 -3 5 -8 15 -11 99 -35 217 -86 306 -130 l108 -54
212 54 c185 47 606 131 614 123 4 -4 -329 -108 -550 -172 -177 -52 -179 -53
-151 -68 l29 -14 -48 -22 c-54 -23 -76 -26 -76 -10 0 18 -23 4 -26 -15 -2 -13
2 -17 17 -13 10 3 17 1 13 -4 -8 -14 9 -11 81 16 l67 26 36 -23 c21 -12 60
-39 88 -60 28 -21 58 -38 66 -38 9 0 70 14 136 30 113 29 445 96 522 106 29 4
27 2 -14 -12 -339 -110 -507 -163 -533 -169 -41 -8 -41 -19 -2 -54 l30 -28
-38 -18 c-21 -10 -53 -19 -70 -19 -18 -1 -31 -5 -30 -11 6 -16 69 -16 113 1
23 9 51 13 62 9 26 -8 212 -202 212 -220 0 -14 -52 -36 -127 -55 -57 -14 -67
-33 -17 -28 39 3 39 3 36 -32 -2 -27 0 -32 9 -23 9 9 16 10 26 1 11 -8 12 -7
7 6 -10 25 12 19 35 -10 23 -30 18 -52 -7 -32 -14 10 -15 10 -5 -2 7 -8 19
-15 27 -16 23 -3 11 33 -24 72 -16 19 -30 38 -30 42 0 4 23 15 52 24 62 21 57
23 144 -87 l63 -81 132 23 c73 12 134 21 136 19 2 -2 -50 -22 -116 -45 l-119
-42 60 -96 c62 -99 192 -358 204 -405 5 -24 2 -29 -22 -39 -16 -6 -42 -12 -59
-13 -16 0 -32 -3 -35 -6 -3 -3 -25 -14 -50 -24 -25 -10 -58 -25 -75 -32 -16
-8 -48 -21 -70 -30 -73 -29 -17 -26 90 5 122 36 116 35 109 16 -4 -8 -18 -15
-34 -15 -16 0 -36 -7 -44 -16 -9 -8 -16 -11 -16 -5 0 10 -86 -11 -98 -25 -6
-6 22 1 56 13 6 3 12 1 12 -5 0 -5 -11 -13 -25 -16 -26 -7 -37 -46 -12 -46 15
0 96 49 81 50 -5 0 -15 -5 -21 -11 -6 -6 -17 -9 -25 -6 -19 7 37 27 76 27 17
0 37 5 44 12 9 9 12 8 12 -4 0 -9 -10 -19 -22 -21 -20 -4 -19 -4 5 -6 15 0 27
3 27 9 0 5 9 2 20 -7 11 -9 17 -19 15 -21 -3 -3 -11 1 -19 7 -8 7 -17 8 -20 3
-3 -5 8 -15 25 -22 22 -10 27 -15 17 -21 -9 -6 -7 -9 9 -9 l21 0 -20 53 c-34
88 -35 105 -2 118 79 30 75 34 128 -109 43 -118 86 -259 86 -286 0 -6 -24 -18
-54 -27 -53 -16 -55 -15 -62 5 -6 21 -7 21 -11 -1 -3 -18 -11 -23 -35 -23 -39
0 -32 -9 9 -12 38 -3 33 -17 -5 -19 -23 -2 -24 -2 -5 -6 12 -2 55 5 95 16 40
11 75 17 79 13 4 -4 10 -23 14 -42 l6 -35 -62 -18 c-49 -14 -64 -16 -70 -5 -4
7 -3 18 3 25 8 10 4 13 -16 13 -18 0 -25 -4 -20 -12 4 -6 3 -8 -4 -5 -5 4 -34
1 -63 -6 -41 -11 -48 -15 -33 -22 16 -7 12 -10 -21 -20 -26 -8 -46 -9 -58 -3
-10 5 -21 7 -25 4 -3 -3 -1 -6 5 -6 6 0 9 -9 6 -19 -5 -21 32 -50 39 -30 5 14
88 30 88 17 0 -6 11 -7 28 -3 15 4 35 7 45 7 9 0 17 3 17 7 0 5 24 11 53 15
108 13 100 16 109 -34 17 -104 11 -100 134 -74 42 8 78 13 80 11 2 -2 -35 -17
-82 -33 -47 -15 -90 -31 -95 -35 -7 -4 -8 -32 -1 -87 9 -76 13 -86 61 -149 68
-90 135 -229 158 -328 51 -225 1 -497 -126 -690 -97 -147 -271 -300 -397 -349
-69 -26 -139 -66 -117 -66 6 0 19 -3 29 -7 11 -4 15 -3 10 5 -3 6 -1 14 5 18
7 4 9 3 6 -3 -8 -12 17 -36 26 -26 4 3 7 15 7 25 0 21 32 36 103 47 49 8 55 4
37 -30 -12 -22 -5 -24 55 -9 107 27 358 80 361 77 5 -5 -421 -147 -591 -197
-139 -41 -247 -87 -245 -104 1 -5 -4 -13 -12 -18 -23 -15 44 3 90 24 31 15 53
18 80 14 27 -5 33 -4 22 3 -12 8 -7 11 20 10 l35 0 -25 -14 c-29 -15 -160 -60
-295 -100 -49 -14 -133 -39 -185 -55 -130 -39 -200 -58 -230 -63 -14 -2 -32
-7 -40 -10 -8 -3 -98 -34 -200 -68 -157 -52 -191 -67 -226 -99 -23 -21 -71
-57 -108 -81 -36 -23 -65 -43 -63 -45 1 -1 133 33 292 77 262 72 524 151 905
274 258 83 661 188 840 219 19 3 -75 -32 -210 -78 -1011 -349 -1146 -391
-1508 -476 -453 -106 -471 -111 -561 -156 -68 -33 -120 -50 -216 -69 -70 -14
-129 -25 -132 -25 -4 0 -4 -2 -1 -6 3 -3 86 9 184 25 387 66 797 131 801 127
2 -2 -27 -24 -64 -49 -64 -44 -74 -47 -163 -57 -265 -29 -807 -93 -970 -116
-102 -13 -205 -27 -230 -30 l-45 -5 75 39 c52 27 93 41 134 45 36 4 79 17 110
33 31 16 76 30 114 34 44 5 78 17 113 39 45 28 57 31 99 25 41 -5 56 -2 92 18
123 71 314 195 373 242 17 13 102 53 190 88 372 149 765 311 762 315 -2 2 -30
-6 -63 -17 -32 -12 -102 -32 -155 -45 -89 -23 -565 -182 -757 -254 -46 -17
-87 -31 -90 -31 -13 0 -31 59 -21 66 6 3 182 69 392 146 311 115 396 142 457
148 124 12 254 68 303 131 17 21 59 46 143 83 166 74 313 147 370 187 156 106
277 277 326 458 29 106 29 286 0 392 -37 137 -121 278 -223 375 -68 63 -123
95 -224 130 -70 24 -95 28 -205 28 -106 0 -139 -4 -220 -26 -84 -24 -192 -61
-285 -98 -21 -8 -68 -9 -157 -4 l-126 6 48 67 c55 76 122 196 144 259 70 198
20 476 -145 804 -84 168 -177 287 -305 389 l-61 48 -6 93 c-22 382 -354 644
-730 578 -78 -13 -225 -66 -297 -106 l-45 -25 -75 20 c-41 11 -133 36 -203 55
-71 19 -131 37 -134 40 -9 8 53 128 108 210 125 187 305 308 535 360 129 28
272 46 386 47 l113 1 -106 51 c-142 70 -287 122 -428 154 -108 25 -132 27
-361 27 -155 1 -267 -4 -305 -11 -73 -15 -256 -65 -252 -69 1 -2 34 2 72 8
100 16 611 16 700 0 113 -20 216 -44 212 -48 -2 -2 -41 3 -88 12 -172 32 -701
28 -781 -6 -18 -8 -13 -9 22 -5 65 8 181 14 140 8 -30 -4 -32 -7 -15 -13 17
-7 15 -8 -10 -8 -16 0 -48 -3 -70 -6 -66 -10 -223 -15 -195 -6 14 4 39 8 57 9
17 1 34 5 38 10 14 23 -192 -25 -320 -75 -49 -19 -114 -48 -144 -64 -30 -17
-57 -28 -59 -25 -7 7 36 52 82 86 51 38 35 36 -77 -7 -259 -102 -513 -254
-692 -414 -79 -71 -165 -165 -160 -177 2 -7 -1 -15 -7 -19 -7 -5 -8 -2 -3 7 8
12 6 12 -8 0 -13 -10 -14 -17 -6 -34 9 -16 8 -23 -7 -34 -17 -12 -17 -13 4
-13 12 0 22 5 22 11 0 5 4 8 9 5 5 -4 67 1 138 9 70 8 150 15 178 14 47 -1 45
-2 -40 -20 -155 -31 -152 -34 28 -35 140 0 191 -4 275 -23 115 -25 147 -23 50
2 -56 15 -58 17 -18 12 25 -3 72 -14 105 -25 53 -17 55 -19 20 -15 -46 5 -41
3 95 -40 312 -99 596 -325 710 -566 40 -84 38 -109 -3 -38 -18 30 -45 71 -60
90 -26 32 -26 30 7 -36 55 -110 78 -184 70 -230 -10 -60 -45 -145 -138 -339
-47 -98 -86 -180 -86 -182 0 -2 -14 -34 -31 -71 -51 -112 -99 -231 -99 -247 0
-22 -17 -28 -42 -15 -13 6 -24 13 -26 14 -8 6 115 289 218 500 66 137 131 277
143 311 21 60 21 63 4 117 -43 136 -192 322 -362 452 -139 106 -330 190 -522
230 -244 51 -543 30 -675 -48 -56 -33 -155 -137 -208 -218 l-41 -64 6 -75 c21
-229 72 -422 156 -584 71 -140 134 -228 225 -320 107 -107 143 -135 270 -211
120 -73 207 -104 431 -156 78 -18 140 -35 138 -37 -5 -6 -138 11 -309 39 -186
30 -345 113 -525 276 -239 216 -377 456 -440 768 -25 123 -42 330 -30 361 4
13 34 63 65 111 30 48 94 167 141 263 101 205 156 294 221 357 106 102 320
223 623 352 279 118 419 165 669 221 156 35 109 38 -82 5 -188 -33 -342 -72
-513 -133 -277 -98 -472 -185 -627 -279 -96 -59 -229 -165 -269 -215 -66 -83
-111 -156 -104 -169 5 -7 4 -10 -3 -5 -6 3 -13 2 -17 -4 -3 -5 -1 -10 5 -10 6
0 8 -5 5 -10 -4 -6 -11 -7 -17 -4 -6 4 -8 2 -5 -4 9 -13 -2 -44 -13 -37 -8 5
-37 -54 -32 -67 1 -5 -3 -8 -9 -8 -6 0 -8 -8 -5 -18 6 -18 -51 -148 -61 -138
-2 2 0 13 6 24 16 31 13 41 -4 12 -8 -14 -12 -33 -8 -44 3 -12 1 -16 -6 -12
-7 5 -9 1 -5 -8 3 -9 10 -13 15 -10 5 3 9 1 9 -5 0 -18 -18 -21 -25 -3 -6 15
-8 14 -20 -8 -10 -19 -11 -28 -2 -39 10 -12 9 -14 -5 -8 -13 5 -19 0 -24 -18
-3 -13 -2 -29 2 -36 5 -9 2 -10 -10 -6 -14 6 -15 3 -6 -13 8 -15 8 -20 -1 -20
-7 0 -9 -3 -6 -7 9 -8 -13 -34 -23 -28 -5 3 -5 -8 0 -25 8 -29 8 -29 -13 -19
-12 7 -19 8 -15 4 4 -4 1 -13 -8 -20 -9 -6 -17 -23 -17 -38 -1 -17 -7 -25 -14
-23 -7 3 -15 0 -19 -6 -5 -7 -2 -8 6 -3 8 5 11 3 9 -4 -3 -7 -9 -12 -14 -12
-6 0 -18 -8 -27 -16 -14 -12 -15 -19 -7 -30 9 -10 8 -13 -5 -13 -10 0 -14 -5
-11 -10 4 -6 11 -7 17 -4 7 4 8 2 4 -5 -4 -6 -11 -9 -15 -6 -5 2 -16 -4 -26
-15 -10 -11 -23 -20 -29 -20 -6 1 0 10 13 21 13 11 22 22 19 24 -2 3 -18 -9
-34 -27 -16 -17 -24 -28 -18 -25 7 4 18 0 25 -9 7 -8 8 -14 3 -12 -5 2 -19 -7
-32 -20 -13 -13 -30 -21 -38 -18 -8 3 -13 2 -9 -3 8 -14 -93 -58 -172 -77
-119 -28 -234 -5 -323 66 l-25 19 65 -5 c174 -15 384 85 513 244 75 93 112
159 221 388 52 109 114 233 138 274 89 155 312 342 553 464 104 53 99 59 -12
15 -118 -46 -249 -114 -322 -167 -174 -124 -252 -222 -491 -624 -98 -164 -105
-165 -40 -8 146 355 280 545 492 698 175 128 427 221 678 251 50 6 112 24 188
56 190 77 451 141 672 164 122 12 337 13 465 1z m-700 -510 c125 -11 237 -38
343 -82 84 -35 89 -47 10 -23 -171 53 -257 65 -473 65 -104 0 -207 -4 -227 -9
-21 -5 -38 -5 -38 0 0 13 105 37 235 52 17 2 32 5 35 5 3 1 55 -3 115 -8z
m165 -70 c20 -6 21 -8 5 -8 -11 0 -31 4 -45 8 -20 6 -21 8 -5 8 11 0 31 -4 45
-8z m-1401 -121 c-12 -17 -35 -54 -51 -83 -16 -28 -26 -40 -23 -26 7 24 45 88
74 123 24 28 24 19 0 -14z m1408 -224 c0 -8 -4 -12 -9 -9 -5 3 -6 10 -3 15 9
13 12 11 12 -6z m174 -82 c13 -16 12 -17 -3 -4 -10 7 -18 15 -18 17 0 8 8 3
21 -13z m-396 -51 c-3 -3 -11 0 -18 7 -9 10 -8 11 6 5 10 -3 15 -9 12 -12z
m456 1 c13 -16 12 -17 -3 -4 -10 7 -18 15 -18 17 0 8 8 3 21 -13z m1124 -34
c116 -43 229 -160 278 -287 26 -67 20 -62 -28 20 -57 97 -175 201 -207 182 -7
-4 -8 -3 -4 4 22 37 -248 50 -358 18 -32 -9 -56 -19 -53 -22 2 -2 17 0 33 7
36 13 116 21 109 10 -2 -5 -21 -12 -41 -16 -20 -3 -61 -17 -92 -31 -30 -13
-61 -24 -69 -24 -8 0 -12 -4 -9 -9 3 -4 -11 -7 -31 -5 -20 1 -33 0 -27 -4 5
-4 -10 -25 -35 -47 -36 -33 -42 -36 -32 -15 l12 25 -20 -23 c-11 -12 -22 -28
-24 -35 -3 -8 -12 -4 -28 12 -18 19 -19 21 -4 11 11 -8 7 0 -10 18 -35 37
-161 92 -151 65 4 -9 4 -24 1 -34 -7 -22 -53 -26 -77 -6 -18 14 -93 147 -83
147 17 0 277 -70 308 -84 32 -13 37 -13 49 1 25 31 128 91 200 117 130 47 275
49 393 5z m-13 -112 c20 -2 40 -6 45 -11 4 -4 -6 -5 -22 -1 -23 4 -18 0 21
-22 47 -25 144 -106 144 -119 0 -3 -15 6 -32 19 -61 46 -136 74 -80 31 9 -8
-5 -3 -33 10 -90 43 -103 41 -40 -7 129 -97 274 -271 329 -392 17 -38 14 -37
-45 28 -104 115 -244 197 -334 197 -80 0 -169 -51 -233 -134 -17 -22 -22 -25
-22 -11 0 27 141 160 184 175 21 7 50 18 64 26 15 8 34 14 42 14 9 0 11 3 4
10 -15 15 -88 17 -90 3 -3 -26 -4 -28 -12 -16 -6 9 -22 3 -60 -22 -28 -19 -54
-35 -58 -35 -4 0 -17 -8 -28 -17 -11 -10 -5 0 13 22 19 22 52 54 73 70 33 25
36 30 20 33 -30 5 -142 -27 -191 -54 -48 -27 -55 -29 -46 -14 11 18 -1 11 -21
-12 -19 -22 -19 -23 1 -8 18 14 19 14 6 -2 -7 -10 -17 -16 -21 -13 -9 6 -119
-117 -183 -204 -62 -84 -62 -84 -39 -31 76 176 110 233 188 321 113 128 225
183 349 173 39 -3 87 -6 107 -7z m-2275 -23 c-3 -3 -12 -4 -19 -1 -8 3 -5 6 6
6 11 1 17 -2 13 -5z m158 -4 c31 -7 24 -7 -30 -3 -38 3 -72 7 -74 9 -8 7 64 3
104 -6z m-45 -20 c-5 -3 19 -7 53 -8 34 -1 91 -5 126 -10 l64 -7 -39 -36 c-67
-60 -215 -151 -241 -149 -5 1 -11 -9 -15 -22 -6 -23 -6 -23 -8 2 -1 18 -5 11
-14 -23 -7 -27 -19 -54 -25 -60 -14 -14 -105 -16 -141 -3 -21 8 -23 7 -13 -6
10 -12 2 -13 -55 -10 -54 2 -63 1 -48 -9 17 -10 10 -16 -60 -55 -43 -24 -83
-44 -89 -44 -12 0 -85 154 -85 178 1 28 75 157 89 154 7 -1 9 2 6 8 -4 6 1 20
12 32 26 29 100 71 115 65 7 -3 4 -6 -7 -6 -17 -1 -17 -3 -5 -11 20 -13 43
-13 35 0 -3 6 1 10 9 10 24 0 8 -27 -19 -33 -14 -2 -22 0 -19 4 9 15 -43 10
-55 -4 -17 -21 0 -29 21 -10 12 11 18 12 18 4 0 -7 -13 -18 -30 -24 -16 -6
-30 -15 -30 -20 0 -4 -5 -5 -10 -2 -6 4 -7 11 -4 17 5 7 2 8 -6 3 -10 -6 -8
-12 9 -27 21 -16 20 -23 -1 -19 -5 0 -8 -4 -8 -10 0 -6 7 -9 15 -5 17 6 21 -9
5 -19 -5 -3 -10 -11 -10 -16 0 -6 20 8 44 31 24 23 52 48 62 55 11 8 14 15 7
15 -6 0 -15 -4 -18 -10 -3 -5 -12 -10 -18 -9 -9 0 -8 2 1 6 6 2 9 10 6 15 -4
6 -2 8 4 4 6 -3 13 -2 17 3 3 6 12 8 20 4 8 -3 23 -2 33 2 16 7 15 8 -3 15
-16 6 -13 8 15 9 19 0 69 3 110 7 l75 7 -35 13 c-33 12 -29 13 58 11 50 0 88
-3 82 -7z m-906 -16 c3 -8 2 -12 -4 -9 -6 3 -10 10 -10 16 0 14 7 11 14 -7z
m-929 -96 c0 -85 3 -98 30 -147 68 -123 188 -156 354 -96 68 24 140 71 204
133 31 31 57 52 57 46 0 -19 -96 -138 -149 -187 -74 -66 -144 -91 -256 -91
-79 -1 -96 3 -141 26 -82 43 -143 132 -144 208 0 27 -3 31 -12 22 -9 -9 -13
-49 -13 -125 0 -138 20 -190 101 -267 76 -72 127 -92 255 -98 127 -5 229 17
357 78 85 40 194 117 215 151 6 10 15 19 18 19 3 0 14 -39 23 -87 32 -164 102
-358 178 -490 l29 -53 -64 0 c-219 0 -381 -105 -483 -315 -89 -184 -109 -320
-109 -765 l0 -345 26 -55 c31 -67 77 -121 127 -151 20 -13 38 -23 39 -24 2 -1
10 -62 19 -136 15 -130 15 -138 -6 -256 -25 -145 -20 -191 37 -304 19 -39 33
-72 32 -73 -7 -6 -244 -79 -474 -147 -111 -33 -607 -150 -612 -145 -2 2 131
49 296 106 279 95 300 104 290 121 -14 26 -5 36 42 50 55 17 62 29 49 78 l-10
40 -57 -20 c-48 -16 -57 -17 -67 -5 -9 12 -21 13 -81 1 -38 -7 -71 -12 -73
-10 -2 1 25 13 60 25 215 77 238 87 218 100 -6 4 -11 10 -10 14 1 4 -1 12 -4
19 -3 6 -4 1 -3 -13 2 -21 -4 -27 -38 -36 -22 -6 -50 -14 -62 -18 -23 -7 -30
8 -49 100 -6 33 -13 28 86 65 19 7 30 18 30 31 0 21 -10 20 -79 -8 -18 -8 -39
-14 -46 -14 -14 0 -59 258 -53 306 2 23 11 30 53 44 45 15 50 20 53 49 3 30 2
31 -25 25 -15 -4 -38 -11 -51 -15 -39 -15 -48 -10 -50 25 -3 38 3 44 68 67 39
13 46 19 50 50 4 27 7 30 13 16 4 -10 7 -29 7 -42 0 -13 4 -26 8 -29 5 -3 7 9
5 27 -4 30 -3 31 11 13 15 -19 16 -18 17 15 0 28 2 30 9 14 8 -19 9 -19 9 3 1
27 21 20 21 -8 0 -10 5 -22 11 -25 13 -8 15 -6 23 23 6 17 2 24 -16 31 -16 7
-18 10 -6 10 9 1 22 3 30 4 7 2 10 2 6 0 -4 -3 2 -18 14 -34 20 -26 21 -32 9
-52 -13 -20 -13 -21 2 -8 12 9 17 10 17 2 0 -7 4 -9 10 -6 6 3 10 1 10 -4 0
-6 4 -11 8 -11 5 0 9 7 9 15 0 8 -3 12 -7 10 -12 -8 -31 12 -34 36 -1 14 -5
29 -8 34 -13 24 -17 46 -8 40 6 -3 10 -1 10 4 0 13 -6 13 -51 4 -28 -5 -30 -7
-14 -14 16 -6 14 -8 -10 -7 -24 1 -159 -35 -222 -59 -8 -3 -13 3 -13 17 0 16
-5 20 -17 16 -10 -3 -31 -8 -48 -11 -40 -8 62 46 142 75 48 17 58 25 58 44 0
22 -1 23 -63 11 l-63 -12 3 41 c3 39 5 41 53 58 28 10 64 25 81 34 24 12 36
13 52 5 31 -17 41 -13 12 5 -22 13 -22 14 -3 9 12 -3 24 -1 28 5 3 5 16 10 29
10 12 0 23 6 23 14 0 17 -35 9 -174 -38 l-103 -35 0 29 c0 36 20 56 71 72 23
6 44 19 47 27 3 9 10 20 16 24 6 5 -20 6 -57 4 l-68 -5 5 37 c3 20 8 61 11 91
7 65 34 228 41 251 3 10 28 23 64 33 55 16 59 19 72 58 9 26 21 42 32 44 10 1
24 8 30 15 8 9 8 10 -3 4 -7 -4 -21 -9 -30 -10 -34 -3 -97 -18 -113 -27 -14
-7 -18 -5 -18 10 0 54 99 321 176 475 23 44 30 67 21 67 -7 0 -105 -18 -217
-40 -112 -22 -209 -40 -215 -39 -26 1 684 223 780 243 143 31 221 54 202 61
-16 7 -69 3 -122 -8 -11 -2 -15 -2 -8 0 7 2 15 14 19 25 7 22 -10 39 -36 37
-29 -2 -35 1 -20 12 23 16 -30 0 -57 -17 -12 -8 -30 -14 -40 -14 -10 0 20 18
66 40 85 41 111 48 111 30 0 -5 -8 -6 -17 -3 -16 6 -16 5 -4 -10 19 -23 31
-21 31 6 1 19 2 19 15 -8 13 -30 13 -30 15 -5 1 23 2 23 10 5 8 -18 9 -18 9 6
1 14 -5 33 -11 42 -11 14 -19 15 -48 7 -52 -15 -362 -81 -366 -78 -3 4 257
121 331 150 56 21 64 33 45 68 -10 18 -13 18 -73 -10 -102 -46 -286 -100 -383
-112 -155 -20 -293 18 -392 107 -96 87 -146 230 -124 360 13 81 56 174 108
237 21 26 39 47 39 47 1 1 1 -41 0 -91z m2269 43 c4 -5 -4 -7 -16 -3 -14 3
-19 2 -14 -6 5 -8 0 -12 -13 -12 -11 0 -22 -4 -26 -9 -3 -6 8 -8 29 -4 21 3
36 1 41 -7 13 -21 -9 -29 -50 -18 -36 9 -47 7 -110 -22 -80 -37 -207 -122
-236 -158 -25 -33 -24 -59 5 -116 l24 -48 -29 28 c-30 29 -37 40 -17 28 7 -4
8 -3 4 5 -4 6 -12 9 -17 5 -6 -3 -21 3 -33 15 l-22 21 -46 -32 c-29 -21 -43
-38 -40 -48 5 -13 3 -13 -12 -1 -14 12 -16 12 -10 -3 4 -11 2 -15 -7 -11 -8 2
-27 7 -42 9 -24 4 -27 3 -17 -9 9 -11 7 -43 -11 -141 l-24 -126 -64 -29 c-73
-33 -85 -36 -53 -11 13 10 28 37 34 63 25 105 54 249 51 249 -2 0 -45 -16 -96
-35 -101 -39 -167 -78 -167 -98 0 -22 62 -109 110 -155 37 -36 40 -42 21 -39
-13 2 -62 45 -115 100 l-93 97 55 37 c72 47 250 122 321 135 167 29 162 27
226 88 71 68 201 164 253 188 20 9 39 20 42 23 3 3 25 17 50 32 44 26 103 36
114 18z m-834 -32 c0 -6 -6 -9 -14 -6 -10 4 -12 0 -8 -15 3 -14 1 -19 -6 -15
-8 6 -9 23 -3 45 3 8 31 0 31 -9z m773 -99 c-2 -19 -10 -78 -20 -130 -14 -78
-18 -90 -24 -65 -6 28 -7 28 -8 5 -3 -51 -12 -67 -49 -80 -20 -7 -42 -15 -48
-17 -7 -2 2 54 23 139 18 79 36 153 39 166 4 20 10 23 47 20 41 -3 42 -4 40
-38z m81 -171 c-9 -11 -22 -19 -28 -19 -6 0 -3 5 7 11 14 8 17 24 17 83 0 123
15 157 18 42 2 -81 0 -102 -14 -117z m98 84 c-2 -27 -1 -34 7 -24 8 12 12 12
25 2 14 -11 16 -11 16 5 0 14 3 15 12 6 19 -19 -15 -77 -61 -106 -57 -37 -76
-91 -68 -204 4 -48 9 -100 13 -116 5 -21 4 -27 -5 -22 -6 4 -11 16 -11 26 0
10 -4 22 -10 25 -6 4 -10 -20 -10 -64 0 -39 -3 -71 -7 -71 -5 0 -19 16 -32 35
-13 20 -25 34 -26 33 -1 -2 2 -31 8 -65 6 -35 8 -66 4 -70 -4 -4 -28 13 -53
38 l-46 44 26 -52 c25 -50 34 -93 19 -93 -4 0 -29 19 -57 43 l-51 42 21 -35
c31 -53 36 -81 16 -96 -14 -10 -23 -6 -61 27 -24 22 -46 37 -48 35 -3 -2 3
-18 11 -35 38 -73 1 -83 -64 -16 -24 24 -45 43 -47 41 -2 -1 6 -24 18 -50 11
-26 18 -50 16 -53 -11 -10 -67 29 -98 67 -18 22 -34 38 -36 37 -2 -2 4 -23 12
-47 8 -24 13 -45 10 -48 -5 -5 -10 1 -100 117 -68 87 -92 103 -154 104 -56 1
-49 12 14 23 65 10 103 31 126 66 21 33 21 33 15 5 -9 -41 10 -25 25 20 8 25
10 70 5 145 l-7 108 26 0 c15 0 44 -14 68 -34 51 -41 157 -106 174 -106 7 0
10 6 7 14 -4 10 10 17 48 26 29 7 81 25 116 41 34 15 64 27 66 26 2 -1 20 18
41 43 40 48 65 97 65 129 0 20 17 71 23 71 2 0 1 -17 -1 -37z m2876 6 c-3 -8
-7 -3 -11 10 -4 17 -3 21 5 13 5 -5 8 -16 6 -23z m-4518 -92 c-8 -9 -9 -7 -4
7 6 16 4 18 -11 13 -15 -6 -16 -5 -5 8 12 15 14 15 23 0 6 -11 5 -21 -3 -28z
m1749 -150 c16 -35 32 -79 36 -98 4 -19 11 -36 15 -39 14 -11 63 -126 68 -163
4 -32 0 -43 -25 -70 -16 -18 -49 -66 -73 -107 -68 -119 -108 -167 -175 -215
-147 -105 -265 -101 -389 15 -69 66 -107 120 -82 120 8 0 28 -19 45 -42 l31
-42 0 36 c0 53 18 57 57 12 l34 -39 -5 37 c-3 27 0 38 11 42 25 10 30 7 49
-31 l19 -38 3 40 c3 37 25 75 43 75 4 0 13 -16 20 -35 19 -50 29 -43 29 20 0
30 5 56 10 57 6 0 15 1 21 2 5 1 19 -17 29 -39 l18 -40 1 92 c1 52 6 95 11 98
6 4 27 -11 46 -32 32 -33 35 -35 29 -13 -15 48 -25 95 -24 120 0 18 9 7 34
-43 18 -37 36 -63 39 -59 3 5 11 41 18 80 10 59 9 88 -4 179 -9 59 -15 109
-13 111 3 3 26 -43 49 -98 7 -17 -3 126 -10 153 -12 39 9 13 35 -46z m1992
-53 c45 -32 129 -117 129 -130 0 -3 -17 8 -37 26 -70 58 -83 68 -83 66 0 -2
-19 15 -42 38 -24 23 -54 50 -68 59 -14 10 -7 8 15 -4 22 -12 61 -37 86 -55z
m-2854 -16 c-3 -7 -5 -2 -5 12 0 14 2 19 5 13 2 -7 2 -19 0 -25z m2668 -17
c103 -36 269 -171 390 -316 89 -107 100 -131 29 -62 -31 32 -62 57 -66 57 -5
0 -7 4 -4 9 11 17 -95 103 -172 139 -135 65 -243 51 -493 -64 -174 -80 -326
-181 -446 -296 -29 -28 -53 -46 -53 -41 0 14 156 190 239 271 42 39 73 72 69
72 -11 0 -115 -85 -177 -144 l-54 -51 54 70 c126 165 328 332 439 361 70 19
182 17 245 -5z m-2688 -73 c-3 -8 -6 -5 -6 6 -1 11 2 17 5 13 3 -3 4 -12 1
-19z m2133 -12 c-7 -7 -13 -7 -20 0 -6 6 -3 10 10 10 13 0 16 -4 10 -10z
m-2130 -20 c0 -3 -4 -8 -10 -11 -5 -3 -10 -1 -10 4 0 6 5 11 10 11 6 0 10 -2
10 -4z m2745 -46 c3 -6 -1 -7 -9 -4 -18 7 -21 14 -7 14 6 0 13 -4 16 -10z
m238 -122 c5 1 6 -2 3 -7 -7 -10 -56 9 -56 22 0 4 10 2 23 -5 12 -7 26 -11 30
-10z m-3873 -16 c0 -10 6 -24 13 -31 10 -11 8 -11 -11 -2 -12 7 -27 9 -32 6
-6 -3 -10 -2 -10 3 0 6 7 13 16 16 8 3 12 10 9 16 -3 5 -1 10 4 10 6 0 11 -8
11 -18z m3676 1 c27 -9 58 -22 69 -30 23 -15 39 -17 30 -3 -3 6 1 7 9 4 9 -3
13 -10 10 -15 -3 -5 2 -6 11 -3 11 5 15 2 13 -8 -2 -9 22 -34 59 -62 91 -69
214 -206 184 -206 -5 0 -13 5 -17 11 -9 15 -177 125 -239 157 -32 16 -66 25
-95 25 -38 -1 -40 0 -15 6 30 7 30 7 -19 24 -64 22 -102 21 -206 -3 -149 -36
-290 -92 -380 -153 l-45 -30 35 37 c112 120 388 261 516 265 17 1 53 -6 80
-16z m-3629 -8 c0 -8 -9 -15 -19 -15 -18 0 -24 11 -11 23 12 12 30 7 30 -8z
m3858 -5 c3 -6 -1 -7 -9 -4 -18 7 -21 14 -7 14 6 0 13 -4 16 -10z m-60 -60 c3
-6 -1 -7 -9 -4 -18 7 -21 14 -7 14 6 0 13 -4 16 -10z m-198 -56 c-3 -3 -12 -4
-19 -1 -8 3 -5 6 6 6 11 1 17 -2 13 -5z m1318 -74 c-3 -5 -18 -10 -33 -9 -24
0 -25 1 -7 9 28 12 47 12 40 0z m-1406 -29 c67 -25 184 -103 169 -112 -7 -4
-31 3 -53 17 -23 13 -46 24 -51 24 -5 -1 4 -8 19 -16 43 -23 26 -27 -39 -8
-82 24 -195 16 -229 -16 -14 -13 -25 -32 -25 -43 0 -33 60 -129 108 -174 25
-24 42 -43 37 -43 -4 0 -47 26 -94 58 -155 105 -285 145 -386 119 -29 -7 -28
-6 15 33 100 89 304 168 462 179 10 0 40 -7 67 -18z m-3174 -77 c102 -26 203
-92 520 -339 200 -157 357 -309 487 -472 80 -100 91 -117 56 -85 -42 38 -44
24 -3 -20 34 -37 33 -36 -12 6 -29 27 -51 52 -50 55 1 3 -25 31 -58 61 -109
101 -350 315 -339 300 69 -88 145 -194 154 -212 6 -13 -15 5 -47 39 -92 97
-275 265 -357 327 -41 31 -108 74 -148 95 -69 38 -184 78 -194 68 -2 -2 14
-16 36 -31 63 -42 187 -171 274 -286 l79 -105 -120 119 c-198 195 -370 298
-466 279 -30 -6 -52 -32 -62 -75 -6 -22 -3 -27 17 -33 56 -16 108 -38 108 -46
0 -5 -15 -9 -34 -9 -42 0 -86 -35 -122 -96 -16 -27 -30 -41 -37 -37 -23 14
-37 11 -37 -9 0 -13 -5 -18 -14 -15 -16 6 -23 -12 -50 -118 -35 -140 -83 -575
-75 -678 5 -54 -6 -50 -34 12 -52 116 -25 775 40 976 59 185 154 292 293 329
72 19 123 19 195 0z m2665 -232 c62 -16 135 -44 175 -66 93 -52 257 -216 304
-306 l35 -65 -70 70 c-39 39 -93 86 -120 105 l-49 34 26 -34 c63 -84 120 -174
147 -232 50 -106 47 -117 -7 -28 -104 171 -211 288 -348 382 -56 38 -181 91
-243 102 -28 5 -21 0 35 -30 99 -51 194 -116 235 -161 20 -21 24 -29 10 -17
-78 63 -277 164 -325 164 -24 0 -19 -5 31 -31 59 -31 114 -75 114 -92 0 -15
-63 -2 -108 22 -24 12 -45 21 -47 19 -2 -2 26 -28 62 -58 130 -109 203 -224
229 -358 16 -85 13 -108 -5 -35 -38 151 -171 319 -302 381 -127 61 -256 75
-328 37 -58 -31 -123 -110 -149 -180 l-10 -30 -1 28 c-1 41 34 133 68 175 32
42 97 80 178 107 35 11 60 27 74 46 58 82 199 100 389 51z m605 -170 c-3 -3
-11 0 -18 7 -9 10 -8 11 6 5 10 -3 15 -9 12 -12z m1421 11 c-14 -4 -16 -7 -6
-13 16 -10 42 -1 34 11 -3 5 -1 9 5 9 22 0 19 -18 -5 -29 -20 -9 -30 -9 -40 0
-17 14 -9 29 14 28 14 -1 14 -2 -2 -6z m-3101 -133 c3 -6 -1 -7 -9 -4 -18 7
-21 14 -7 14 6 0 13 -4 16 -10z m728 -40 c49 -15 66 -25 70 -42 6 -20 -8 -79
-36 -152 -9 -26 -12 -27 -18 -10 -7 18 -8 18 -8 -1 -1 -11 -6 -27 -12 -35 -7
-11 -9 8 -5 65 l5 80 -15 -75 c-19 -96 -24 -160 -17 -205 4 -25 9 -32 14 -23
6 9 9 5 9 -14 0 -15 5 -30 10 -33 6 -3 10 -18 11 -33 l1 -27 8 25 c4 14 9 39
9 55 1 17 8 44 17 60 l14 30 -6 -30 c-5 -30 -5 -30 11 -7 9 12 13 27 9 34 -4
7 -3 8 4 4 7 -4 12 -1 12 9 0 9 -4 13 -10 10 -6 -3 -10 4 -9 17 0 13 3 17 6
11 2 -7 9 -13 14 -13 4 0 6 7 3 15 -3 8 3 27 14 42 10 15 22 35 25 43 22 52
-11 -70 -37 -137 -26 -67 -35 -80 -45 -70 -11 10 -11 8 -3 -9 8 -15 8 -48 1
-115 -6 -52 -8 -123 -5 -159 3 -36 3 -58 0 -50 -21 58 -32 100 -26 96 4 -2 8
26 8 62 1 44 -1 60 -6 47 -8 -18 -9 -18 -9 5 -1 21 -3 22 -12 10 -9 -13 -10
-13 -6 2 3 9 2 29 -3 45 -8 27 -8 27 -9 3 -2 -52 21 -196 36 -223 8 -16 12
-35 7 -45 -10 -25 -21 -112 -13 -106 10 6 20 -26 12 -39 -4 -7 1 -6 10 2 15
12 17 11 17 -7 0 -12 5 -24 10 -27 6 -3 10 4 10 16 0 31 6 21 13 -21 6 -32 3
-38 -32 -67 l-39 -32 -56 85 c-54 81 -58 90 -67 172 -11 98 -27 216 -35 250
-3 15 -12 22 -27 22 -13 0 -29 6 -36 13 -11 10 -12 -4 -7 -83 3 -52 11 -139
17 -193 6 -54 9 -100 7 -103 -3 -2 -22 48 -43 111 -45 134 -71 185 -103 201
-13 6 -29 20 -37 30 -13 18 -14 17 -11 -11 2 -16 18 -95 36 -174 18 -80 29
-146 24 -148 -5 -2 -8 -28 -7 -59 3 -49 7 -59 39 -89 23 -22 34 -40 30 -50 -3
-8 -1 -15 4 -15 5 0 12 -10 15 -22 4 -13 18 -46 30 -74 42 -93 48 -130 34
-211 l-13 -72 -79 152 c-44 84 -106 191 -139 239 l-59 86 -19 183 c-19 180
-33 229 -64 229 -31 0 -38 -42 -27 -167 6 -67 8 -128 5 -136 -16 -44 38 -270
61 -249 4 4 5 -1 2 -11 -4 -11 -3 -16 3 -12 6 3 13 -2 17 -12 3 -10 26 -46 50
-79 24 -34 43 -66 43 -72 0 -5 -11 -17 -24 -25 -24 -16 -25 -15 -79 46 -81 93
-178 209 -193 232 -14 23 -33 233 -35 398 l-1 107 88 98 c166 181 389 405 434
434 40 26 51 29 96 24 28 -3 81 -15 117 -26z m-2338 -35 c91 -44 128 -73 50
-40 -33 15 -87 29 -120 32 -84 8 -91 -2 -120 -174 -21 -120 -46 -324 -41 -330
1 -1 17 43 36 97 18 55 36 98 38 96 2 -3 -8 -55 -21 -118 -37 -164 -56 -280
-62 -388 l-6 -95 21 38 c11 20 22 37 24 37 2 0 0 -17 -4 -37 -4 -21 -11 -66
-14 -101 l-7 -62 43 29 c24 17 57 33 73 36 29 6 29 6 -6 -14 -37 -20 -89 -74
-89 -92 0 -5 17 2 38 15 40 27 112 60 112 51 0 -2 -15 -11 -32 -18 -57 -24
-135 -102 -152 -154 -9 -25 -14 -48 -12 -50 2 -2 17 8 32 23 38 35 128 96 184
124 47 23 46 19 -5 -19 -121 -89 -225 -233 -225 -310 l0 -36 43 46 c47 53 85
81 172 130 l60 33 -92 -88 c-89 -85 -165 -187 -179 -240 -10 -39 -20 -32 -44
32 -35 90 -39 150 -19 229 24 88 23 140 -2 358 -24 209 -30 595 -10 760 18
156 50 205 149 231 63 16 103 9 187 -31z m3633 -36 c-13 -23 -38 -58 -56 -78
-30 -33 -30 -31 6 19 22 30 45 65 51 78 6 12 14 22 17 22 3 0 -5 -19 -18 -41z
m988 -90 c64 -19 196 -88 208 -108 3 -5 -25 6 -62 24 -147 73 -316 81 -520 24
-125 -35 -386 -122 -557 -187 -66 -24 -203 -73 -305 -107 -229 -78 -868 -303
-880 -310 -16 -10 -20 40 -4 52 9 7 89 37 178 67 88 30 283 98 431 151 1158
414 1155 413 1341 414 76 1 119 -4 170 -20z m-1951 -79 c19 -57 15 -85 -15
-118 -29 -30 -80 -29 -117 3 l-28 24 37 -11 c28 -8 44 -8 67 2 36 15 46 42 37
106 -3 24 -4 44 -2 44 3 0 12 -23 21 -50z m1445 -72 c-108 -51 -252 -98 -301
-98 -21 0 -40 -4 -43 -9 -9 -14 103 -11 146 5 22 8 51 14 64 14 13 0 24 4 24
8 0 4 26 16 58 26 31 9 73 22 92 28 19 6 46 12 60 13 14 1 33 5 42 9 10 4 23
6 30 4 7 -3 -5 -11 -27 -18 -54 -17 -111 -42 -229 -101 -75 -38 -101 -47 -107
-37 -5 7 -4 15 1 16 6 2 10 8 10 13 0 6 -5 7 -11 3 -7 -4 -39 -6 -73 -5 -33 0
-88 -5 -121 -13 -64 -16 -89 -13 -34 3 19 5 26 10 17 10 -24 1 -68 -20 -62
-30 3 -5 1 -9 -5 -9 -5 0 -11 5 -13 10 -3 11 -91 -17 -155 -49 -21 -11 -49
-22 -63 -25 -14 -3 13 13 60 35 68 34 157 65 258 90 4 1 18 6 32 11 81 31 407
138 420 137 8 0 -23 -19 -70 -41z m155 -82 c-33 -13 -89 -36 -125 -51 -36 -14
-87 -35 -115 -45 -27 -10 -58 -21 -67 -25 -11 -4 -18 -3 -18 4 0 7 17 19 38
27 20 8 53 23 72 33 19 10 58 25 85 34 28 9 70 23 95 31 75 24 102 18 35 -8z
m-70 -111 c-46 -22 -166 -65 -179 -64 -12 0 5 8 109 49 74 30 121 40 70 15z
m-645 -15 c-24 -19 -40 -25 -40 -15 0 5 51 34 60 34 3 0 -6 -8 -20 -19z
m-1007 -7 c-7 -2 -19 -2 -25 0 -7 3 -2 5 12 5 14 0 19 -2 13 -5z m1325 -45
c11 -29 28 -77 38 -106 l19 -53 -37 -34 c-40 -37 -106 -60 -197 -71 -51 -5
-61 -4 -79 14 -23 23 -62 120 -69 174 -5 36 -5 37 38 48 58 14 164 49 203 66
53 23 63 18 84 -38z m-1248 32 c18 -12 2 -12 -25 0 -13 6 -15 9 -5 9 8 0 22
-4 30 -9z m875 -8 c-6 -5 -44 -21 -85 -36 -41 -15 -92 -36 -113 -47 -21 -11
-41 -17 -46 -14 -5 2 -11 -2 -14 -9 -4 -11 0 -13 15 -11 31 6 159 57 186 73
14 9 22 10 22 3 0 -15 -81 -54 -197 -96 -189 -69 -238 -90 -215 -93 11 -2 29
1 39 7 10 5 73 25 138 44 66 19 145 44 175 56 30 11 47 14 38 7 -10 -7 -15
-16 -12 -19 3 -3 -19 -18 -50 -33 -73 -36 -77 -63 -4 -29 52 24 72 25 50 3
-15 -15 -16 -32 -2 -23 6 3 10 -3 10 -14 0 -12 5 -21 10 -21 6 0 10 12 10 28
1 25 3 23 24 -18 16 -29 44 -59 82 -86 33 -23 58 -48 57 -55 -1 -8 -11 -41
-23 -74 -26 -69 -32 -244 -9 -229 14 8 32 -28 44 -89 l13 -62 -29 33 c-17 19
-28 40 -25 48 3 8 2 13 -3 10 -5 -3 -33 20 -63 52 -44 46 -59 70 -72 117 -27
95 -36 114 -75 144 -47 36 -119 55 -211 56 -82 0 -112 -8 -330 -85 -433 -154
-579 -204 -583 -199 -2 2 -26 56 -54 119 -48 108 -53 139 -18 110 16 -13 21
-35 6 -26 -5 4 -7 -3 -4 -14 3 -11 9 -23 14 -26 5 -3 6 3 3 13 -3 10 2 6 11
-10 9 -15 13 -32 10 -37 -7 -12 19 -53 28 -43 4 3 2 12 -4 20 -9 9 -8 13 0 13
6 0 11 -4 11 -10 0 -5 7 -10 16 -10 8 0 12 5 9 10 -3 6 -2 10 3 10 6 0 13 -7
16 -16 4 -10 2 -13 -7 -8 -6 4 -9 4 -5 0 3 -4 8 -6 11 -4 2 1 11 -3 20 -10 22
-19 66 6 142 78 48 46 78 65 151 94 50 20 112 45 138 56 25 12 52 18 59 14 6
-4 9 -4 5 1 -9 9 90 58 102 50 4 -3 13 1 19 9 9 11 7 15 -8 19 -11 2 -23 1
-28 -4 -4 -4 -19 -10 -33 -13 -14 -2 -98 -29 -187 -58 l-163 -53 0 30 c0 28 4
32 68 54 37 13 105 39 152 58 46 18 90 31 98 28 7 -2 11 -1 8 3 -2 4 80 38
182 76 103 38 220 82 260 97 85 34 89 34 71 13 -11 -13 -9 -14 17 -8 16 4 47
15 69 25 42 19 76 25 60 11z m-2002 -140 c4 -35 1 -47 -13 -60 -11 -8 -16 -20
-13 -25 4 -6 -1 -8 -11 -4 -14 6 -15 3 -6 -13 6 -11 7 -20 3 -20 -4 0 -3 -4 4
-8 7 -5 9 -13 3 -22 -7 -12 -11 -12 -26 1 -11 9 -15 9 -10 2 11 -20 -19 -16
-35 4 -12 15 -12 16 4 10 12 -5 16 -3 11 5 -5 7 -2 9 9 5 9 -3 18 0 21 9 3 8
3 14 0 14 -12 0 -61 -30 -73 -44 -10 -12 -9 -14 11 -9 17 3 19 2 9 -5 -9 -7
-10 -12 -2 -16 6 -4 9 -12 6 -17 -4 -5 2 -6 11 -2 11 4 13 8 6 11 -7 2 -12 9
-12 15 0 8 3 8 12 -1 8 -8 15 -9 25 -1 7 7 13 8 13 3 0 -10 -74 -64 -87 -64
-4 0 -1 5 7 11 13 9 13 10 0 6 -8 -2 -15 -9 -15 -16 0 -14 -26 -32 -36 -25 -4
2 -11 -1 -15 -7 -4 -8 -3 -9 4 -5 7 4 12 5 12 2 0 -8 -57 -36 -73 -36 -15 0
-87 66 -87 80 0 5 25 28 56 52 31 24 106 82 167 130 61 48 112 87 113 85 0 -1
4 -21 7 -45z m3152 3 c17 -4 38 -14 47 -22 17 -15 15 -19 -26 -67 l-43 -51 49
-1 c27 -1 53 -5 59 -11 6 -6 -5 -33 -30 -74 -21 -35 -37 -67 -35 -71 3 -4 20
0 39 8 19 8 37 14 40 14 3 0 -6 -22 -19 -48 -33 -65 -56 -74 -171 -66 -82 6
-92 9 -79 22 20 20 66 111 60 120 -3 4 -22 9 -43 10 -52 3 -207 22 -210 26 -2
2 18 11 44 20 27 10 57 22 68 27 11 5 33 13 48 19 16 5 25 14 22 20 -8 14 -94
50 -118 50 -11 0 -18 2 -15 5 8 8 178 66 218 75 35 8 41 7 95 -5z m365 -230
c-38 -219 -167 -388 -388 -512 -61 -34 -310 -128 -319 -120 -2 2 27 17 64 32
289 121 471 268 564 456 42 84 68 161 77 228 6 49 7 51 10 21 2 -19 -2 -66 -8
-105z m-4410 101 l65 -12 -44 -6 c-55 -8 -154 -58 -217 -110 -94 -77 -180
-217 -204 -331 -12 -61 -16 -238 -5 -260 4 -6 -3 -1 -14 11 -55 63 -79 267
-45 383 52 176 176 306 312 329 65 11 78 10 152 -4z m1800 -46 c0 -13 -1 -13
-10 0 -5 8 -10 22 -10 30 0 13 1 13 10 0 5 -8 10 -22 10 -30z m1470 -22 c0 -7
5 -30 11 -52 l11 -38 48 6 c26 3 55 3 64 0 22 -9 46 -56 45 -91 0 -27 -1 -27
-12 7 -24 71 -136 94 -194 41 -18 -16 -29 -32 -25 -37 4 -4 1 -4 -6 0 -7 4
-10 12 -7 17 4 5 1 9 -6 9 -8 0 -9 -13 -4 -46 13 -89 34 -141 70 -173 19 -17
35 -35 35 -41 0 -6 5 -8 12 -4 6 4 8 3 4 -4 -9 -16 25 -82 43 -83 9 0 1 -7
-18 -15 -19 -9 -37 -12 -42 -7 -25 26 -192 338 -210 392 -21 63 -21 65 -3 78
11 8 31 13 46 10 15 -2 25 0 22 5 -3 4 4 8 15 8 12 0 21 -5 21 -11 0 -5 -4 -7
-10 -4 -5 3 -10 4 -10 1 0 -2 -3 -12 -6 -20 -5 -12 -2 -15 12 -9 17 6 17 5 1
-17 -21 -30 -23 -52 -3 -24 13 16 17 17 28 5 9 -10 9 -12 1 -7 -8 5 -13 1 -13
-9 0 -11 5 -15 16 -11 8 3 12 2 9 -4 -3 -6 -2 -10 3 -10 16 0 21 27 9 41 -10
11 -9 11 5 0 24 -18 42 17 28 54 -13 34 -13 55 0 55 6 0 10 -6 10 -12z m-3160
-5 c-54 -9 -52 -16 9 -29 70 -15 151 -43 151 -53 0 -4 -18 -5 -39 -3 -62 6
-141 -15 -198 -53 -29 -19 -56 -35 -60 -35 -5 0 5 9 20 19 19 12 25 21 17 26
-8 5 -8 10 0 20 9 11 6 12 -12 8 -13 -3 -31 -13 -41 -21 -9 -8 -20 -12 -23 -9
-4 4 1 9 10 13 9 3 16 12 16 19 0 7 15 20 33 29 17 8 26 16 18 16 -19 0 -101
-62 -147 -112 -71 -78 -133 -193 -81 -150 8 7 17 9 20 5 4 -3 7 -1 7 5 0 5 -5
12 -12 14 -8 3 -8 9 1 24 11 19 11 19 9 -1 -2 -11 2 -19 7 -18 6 1 11 -7 11
-17 0 -10 -4 -18 -9 -17 -20 4 -18 -25 2 -30 12 -3 21 -10 21 -15 0 -5 5 -6
10 -3 12 8 10 62 -3 90 -5 11 -6 17 -2 13 4 -4 14 0 22 10 13 15 13 14 3 -6
-9 -19 -8 -27 6 -43 9 -10 13 -19 7 -19 -5 0 -10 -6 -11 -12 -3 -27 -47 -184
-55 -196 -5 -7 -34 -25 -66 -41 -31 -16 -63 -37 -71 -46 -21 -25 -30 -1 -30
80 0 189 95 374 242 472 60 41 149 73 198 71 25 0 34 -3 20 -5z m3118 -7 c-7
-8 -17 -12 -22 -9 -4 3 -2 9 5 14 22 13 31 11 17 -5z m304 -24 c43 -40 61 -78
56 -123 -3 -31 -4 -32 -20 -15 -10 10 -18 12 -18 6 0 -6 -4 -9 -8 -6 -4 3 -9
-11 -9 -31 -1 -19 -6 -40 -12 -46 -19 -19 -12 -31 8 -13 11 10 17 25 14 34 -4
10 -2 13 6 8 8 -5 11 -1 8 16 -2 12 -2 17 0 10 3 -7 9 -10 14 -7 19 12 7 -12
-27 -55 -36 -45 -79 -73 -67 -45 3 8 8 13 12 11 4 -3 7 3 8 12 0 9 7 31 14 49
11 28 10 40 -6 90 -10 32 -18 64 -16 72 1 8 -2 10 -9 6 -9 -6 -9 -2 -1 14 13
24 26 29 17 5 -4 -9 -2 -13 5 -8 8 4 9 -1 4 -17 -4 -16 -3 -20 3 -11 5 8 13
13 18 12 5 -1 10 4 12 12 3 10 2 10 -6 0 -6 -9 -12 -6 -21 14 -9 20 -15 24
-23 16 -9 -9 -17 -7 -32 6 l-21 17 20 -24 20 -24 -20 8 c-11 4 -39 12 -62 18
-67 16 -51 30 30 26 65 -4 76 -7 109 -37z m-2105 -14 c-3 -8 -6 -5 -6 6 -1 11
2 17 5 13 3 -3 4 -12 1 -19z m-498 -73 c1 -16 -12 -24 -63 -41 -61 -21 -63
-21 -74 -3 -15 24 -15 39 1 39 6 0 37 16 67 35 54 34 55 34 62 12 3 -12 6 -31
7 -42z m-939 -9 c0 -2 -7 -9 -15 -16 -13 -11 -14 -10 -9 4 5 14 24 23 24 12z
m2617 -80 c12 -39 23 -75 23 -80 0 -6 -33 -51 -72 -100 -59 -73 -161 -171
-295 -282 l-23 -19 25 -75 c14 -41 25 -79 25 -85 0 -6 -36 -22 -79 -37 l-79
-26 -56 200 c-68 242 -88 291 -129 317 l-31 20 24 9 c14 5 57 21 95 35 39 14
131 49 205 78 239 91 315 118 329 116 8 -1 25 -33 38 -71z m775 47 c21 -19 24
-75 5 -92 -8 -6 -27 -14 -44 -17 -32 -6 -46 5 -57 46 -7 24 -6 24 9 -2 18 -32
68 -39 83 -12 23 41 -15 91 -64 81 -13 -2 -21 0 -18 4 9 15 67 10 86 -8z
m-3502 -24 c-12 -16 -25 -27 -28 -24 -4 3 -2 9 4 13 6 4 13 15 17 25 3 9 11
17 17 17 6 0 2 -14 -10 -31z m80 6 c7 -9 8 -15 2 -15 -5 0 -12 7 -16 15 -3 8
-4 15 -2 15 2 0 9 -7 16 -15z m1694 -1 c3 -8 2 -12 -4 -9 -6 3 -10 10 -10 16
0 14 7 11 14 -7z m-1715 -12 c7 -14 3 -30 -18 -66 -21 -36 -30 -44 -35 -31 -4
11 -2 14 6 9 7 -5 9 -2 5 9 -3 8 0 18 8 21 21 8 35 40 24 57 -8 12 -12 11 -24
-5 -16 -21 -19 -18 -9 8 8 21 31 20 43 -2z m668 4 c21 -8 52 -17 68 -21 27 -7
22 -10 -65 -42 -191 -69 -661 -243 -725 -269 -18 -7 -19 -6 -6 9 14 17 131 86
251 148 47 24 412 181 437 188 2 1 20 -5 40 -13z m383 -76 c-3 -2 -14 -6 -24
-7 -11 -2 -22 -6 -25 -10 -3 -3 4 -3 16 0 13 3 26 1 29 -4 3 -5 -4 -9 -16 -9
-12 0 -18 -4 -15 -10 3 -5 -7 -12 -22 -15 -15 -3 -47 -15 -71 -26 -23 -10 -49
-19 -58 -19 -9 0 -12 -5 -8 -12 5 -7 2 -9 -9 -5 -9 3 -17 3 -19 -1 -3 -9 -160
-64 -165 -58 -2 2 27 15 64 29 82 31 267 117 262 122 -4 3 -304 -102 -714
-249 -339 -122 -509 -196 -565 -246 -25 -22 -26 -26 -6 -11 30 22 155 65 164
56 3 -3 -8 -8 -25 -11 -16 -3 -38 -17 -48 -30 -10 -13 -25 -24 -34 -24 -14 0
-14 2 -1 10 9 6 10 10 3 10 -6 0 -15 -5 -18 -10 -4 -6 -12 -7 -18 -4 -9 5 -9
4 0 -6 15 -16 6 -40 -15 -40 -13 0 -12 3 4 15 10 8 14 15 8 15 -6 0 -17 -7
-25 -16 -10 -13 -10 -17 2 -25 19 -12 26 -11 32 5 3 7 24 16 46 20 23 3 41 11
41 16 0 6 -5 10 -11 10 -5 0 -7 5 -3 11 5 8 9 8 14 -1 5 -8 18 -10 39 -5 31 7
34 25 5 25 -8 0 -12 -4 -9 -10 3 -5 2 -10 -4 -10 -5 0 -13 4 -16 10 -10 16 44
24 62 9 14 -12 16 -12 11 1 -4 14 37 40 63 40 16 0 9 -18 -8 -23 -13 -3 -13
-5 -3 -5 19 -2 76 45 67 54 -4 4 -15 0 -25 -9 -11 -10 -23 -13 -31 -8 -17 11
-8 16 79 46 39 13 70 20 70 15 0 -9 -53 -50 -64 -50 -25 0 -76 -73 -76 -108 0
-11 -7 -25 -15 -32 -21 -18 -19 -29 5 -23 35 9 23 -23 -15 -41 -19 -9 -51 -23
-71 -32 -24 -12 -32 -20 -25 -27 7 -7 14 -7 23 1 7 5 36 19 65 30 l52 20 25
-53 c14 -29 30 -56 36 -60 8 -5 8 -11 -1 -21 -16 -20 1 -56 40 -85 l30 -22
-82 -29 c-45 -16 -93 -30 -106 -30 -14 0 -19 -3 -13 -7 8 -5 -4 -19 -32 -38
-25 -18 -53 -44 -63 -60 -9 -15 -22 -31 -27 -35 -22 -15 7 -21 96 -19 101 2
128 -3 128 -26 0 -8 -4 -11 -10 -8 -6 3 -7 -1 -4 -10 4 -10 -6 -31 -25 -55
-30 -38 -30 -39 -10 -45 16 -5 18 -9 9 -15 -9 -5 -5 -8 11 -8 74 0 237 -25
259 -39 40 -27 49 -39 43 -61 -3 -12 6 -39 22 -66 20 -35 24 -47 13 -51 -32
-11 -264 -35 -345 -36 l-88 -1 74 -24 c101 -33 205 -53 313 -61 l92 -6 -39
-14 c-56 -19 -298 -12 -341 10 -17 9 -34 13 -38 10 -3 -4 -6 -2 -6 4 0 6 -8 9
-19 6 -11 -3 -28 4 -41 19 -13 12 -20 17 -16 11 11 -19 -2 -16 -37 10 -17 12
-40 27 -51 32 -10 6 -23 17 -27 25 -26 51 -50 115 -70 185 -12 44 -27 94 -35
111 -7 16 -16 50 -20 73 -4 26 -21 61 -43 89 -38 49 -45 102 -15 102 8 0 13
-4 9 -9 -3 -5 -1 -12 5 -16 5 -3 10 1 10 9 0 10 6 13 16 9 13 -5 13 -7 2 -14
-9 -6 -7 -9 8 -9 33 0 21 57 -27 129 -22 33 -38 65 -34 71 4 6 2 9 -4 8 -5 -2
-21 12 -35 31 l-25 34 24 47 c32 62 113 151 189 204 135 96 258 146 1101 446
l190 68 20 -21 c11 -12 18 -24 15 -27z m2027 -12 c-3 -7 -5 -2 -5 12 0 14 2
19 5 13 2 -7 2 -19 0 -25z m-1831 -203 c-1 -5 -27 -18 -57 -28 -139 -47 -380
-142 -432 -169 -32 -17 -71 -46 -87 -64 -30 -35 -56 -126 -44 -160 3 -10 -3
-6 -14 10 -12 17 -18 34 -15 39 3 6 2 7 -4 4 -6 -4 -22 -1 -36 6 -19 8 -25 17
-21 30 3 10 0 24 -6 32 -7 8 -10 21 -7 29 3 7 0 19 -6 25 -8 8 -5 17 9 33 l19
23 -22 -19 c-22 -18 -23 -18 -32 7 -6 14 -20 31 -33 38 l-23 12 29 8 c16 5 33
6 38 3 19 -12 68 -22 63 -13 -4 5 -15 9 -25 9 -10 0 -21 4 -25 9 -7 12 61 35
76 25 8 -5 9 -3 4 6 -6 10 -4 12 8 7 9 -3 17 -2 19 2 2 4 68 33 148 65 203 79
259 105 304 138 50 36 36 36 -46 -1 -36 -17 -106 -43 -156 -60 -134 -44 -411
-150 -437 -167 -13 -9 -55 -16 -106 -18 -46 -2 -97 -6 -114 -10 -29 -6 -29 -5
5 10 19 9 45 17 57 18 11 0 19 4 18 7 -5 7 96 43 118 42 9 -1 15 2 12 8 -4 5
3 9 15 9 14 0 19 -4 14 -12 -6 -10 -4 -10 7 -2 8 7 33 15 57 19 23 4 42 11 42
16 0 5 7 9 15 9 8 0 35 9 60 21 25 12 52 18 60 15 9 -3 14 -2 10 3 -3 5 34 21
82 36 49 15 92 31 98 36 5 5 15 9 22 9 7 0 32 12 55 26 23 14 48 27 57 29 9 1
15 9 13 16 -2 8 0 11 4 7 10 -11 35 12 28 26 -3 6 37 -34 90 -89 52 -55 94
-104 92 -110z m2254 22 c0 -5 -4 -6 -9 -3 -14 9 -43 114 -35 128 6 10 44 -96
44 -125z m-714 30 c21 -18 23 -18 64 3 23 12 44 19 47 17 2 -3 -4 -29 -14 -57
l-18 -52 39 -34 c22 -19 36 -37 33 -40 -4 -4 -30 -9 -58 -12 -54 -5 -54 -5
-83 -87 -6 -17 -10 -14 -29 20 -20 36 -27 40 -65 43 l-42 3 15 30 c18 34 8 64
-25 74 -30 10 -24 20 17 31 34 8 39 14 51 57 15 52 14 52 68 4z m-3496 9 c0
-2 -8 -10 -17 -17 -16 -13 -17 -12 -4 4 13 16 21 21 21 13z m2615 -68 c27 -98
123 -421 130 -439 5 -12 -13 -26 -74 -58 -45 -23 -81 -40 -81 -38 0 3 -22 80
-50 173 -27 93 -50 182 -50 199 0 28 13 114 25 173 5 18 47 47 76 51 4 1 14
-27 24 -61z m1692 -45 c3 -10 19 -48 34 -85 34 -78 36 -98 10 -98 -15 0 -20
10 -25 48 -10 64 -16 83 -26 77 -5 -3 -15 2 -23 10 -14 13 -24 12 -90 -15 -42
-17 -82 -30 -89 -30 -8 0 -17 -3 -21 -6 -7 -7 34 -93 65 -136 l19 -28 -25 0
c-29 0 -35 -20 -11 -40 23 -19 120 -4 187 30 46 23 56 25 48 11 -5 -10 -37
-30 -71 -46 -52 -23 -72 -27 -125 -23 -47 3 -69 9 -83 23 -27 29 -97 213 -85
225 5 5 53 20 105 34 53 13 114 33 135 45 48 25 63 26 71 4z m-4077 -37 c0
-22 -5 -24 -54 -28 -61 -3 -61 -3 -8 28 49 29 62 29 62 0z m1989 -18 c5 -18
29 -107 52 -198 23 -91 43 -166 44 -168 2 -2 35 13 75 33 40 20 77 34 84 32 9
-4 46 -117 46 -140 0 -3 -35 -19 -77 -36 -43 -17 -116 -46 -163 -66 -100 -41
-110 -42 -110 -12 0 31 -53 236 -100 391 -22 71 -39 130 -37 132 4 4 160 63
169 63 3 1 11 -14 17 -31z m2088 -40 c-3 -8 -6 -5 -6 6 -1 11 2 17 5 13 3 -3
4 -12 1 -19z m-2333 -70 c9 -33 13 -64 9 -68 -4 -4 -35 -17 -68 -30 -119 -46
-115 -42 -100 -101 8 -28 16 -53 19 -56 3 -3 30 9 62 26 31 18 59 30 62 26 11
-10 40 -115 33 -119 -3 -2 -28 -16 -56 -31 -27 -15 -54 -31 -59 -36 -5 -5 3
-54 20 -118 15 -61 26 -112 24 -113 -3 -2 -37 -18 -77 -35 l-72 -31 -15 47
c-8 25 -40 140 -71 255 -65 243 -80 283 -108 297 -17 10 1 18 124 59 79 26
164 57 189 68 25 11 50 21 56 21 6 1 18 -27 28 -61z m-1741 4 l19 -32 -34 -38
c-23 -26 -40 -61 -56 -115 -18 -62 -26 -76 -36 -68 -11 9 -15 -1 -23 -49 -5
-33 -6 -60 -1 -60 4 0 8 -6 8 -14 0 -7 7 -19 15 -26 8 -7 13 -16 10 -20 -3 -5
0 -12 6 -15 5 -4 8 -13 5 -21 -4 -10 2 -14 19 -14 22 0 24 -3 22 -54 -1 -38
-5 -52 -14 -48 -31 18 -148 122 -178 158 l-34 41 35 154 c46 208 50 218 82
225 15 3 43 11 62 19 50 19 71 14 93 -23z m892 -87 c47 -99 52 -124 25 -152
-65 -71 -255 -118 -298 -75 -20 20 -82 160 -82 185 0 15 40 37 68 37 9 0 67
20 127 44 61 24 113 42 117 40 4 -3 23 -38 43 -79z m-150 67 c-11 -9 -132 -62
-143 -62 -14 0 38 30 84 49 53 22 74 26 59 13z m2805 -64 c-41 -19 -201 -85
-310 -128 -25 -10 -108 -44 -185 -75 -238 -98 -387 -152 -780 -286 -372 -126
-489 -162 -310 -93 50 19 153 59 230 89 77 30 203 77 280 105 77 28 215 80
307 116 156 60 637 240 738 276 64 22 83 20 30 -4z m-3849 -157 c-57 -166 -56
-173 26 -263 76 -83 93 -97 177 -153 58 -38 61 -42 64 -84 3 -42 2 -44 -15
-30 -16 12 -16 11 1 -9 17 -20 18 -22 2 -22 -56 0 -206 46 -219 67 -3 5 -15
55 -27 113 -24 114 -47 180 -62 180 -11 0 -1 -174 16 -290 11 -72 12 -75 51
-97 95 -55 214 -74 293 -48 20 7 22 4 22 -32 0 -61 -18 -78 -82 -77 -53 0
-159 28 -241 63 -42 18 -45 22 -81 117 -28 72 -42 131 -54 221 l-16 122 -23
-112 c-26 -127 -26 -134 28 -267 29 -70 49 -104 76 -128 l38 -34 -45 30 c-86
58 -131 109 -209 234 l-42 67 61 121 c34 67 59 124 57 127 -3 2 -65 -10 -138
-27 -73 -17 -181 -42 -239 -55 -165 -38 -443 -95 -446 -92 -2 2 92 34 209 72
116 37 257 83 312 101 55 18 153 49 217 69 64 20 123 44 130 52 7 8 45 42 85
74 40 33 80 73 90 89 31 53 26 23 -16 -99z m3494 -66 c-84 -40 -462 -188 -519
-203 -75 -21 -4 19 94 53 7 2 42 16 55 21 6 2 17 8 25 13 18 11 17 11 205 77
149 52 197 65 140 39z m-2093 -55 c15 -14 25 -17 33 -10 9 7 17 5 26 -7 13
-16 12 -17 -3 -4 -16 12 -18 11 -18 -3 0 -9 4 -16 8 -16 5 0 14 -11 20 -25 18
-39 14 -44 -7 -10 -33 54 -57 68 -121 73 -68 5 -71 22 -4 22 31 0 51 -6 66
-20z m-221 -13 c-10 -9 -11 -8 -5 6 3 10 9 15 12 12 3 -3 0 -11 -7 -18z m-24
-9 c0 -13 4 -32 8 -43 5 -16 5 -17 -4 -5 -8 12 -11 8 -12 -20 0 -28 -2 -31 -8
-15 -5 11 -4 28 1 38 5 10 7 21 5 24 -3 2 -8 -5 -12 -16 -3 -12 -10 -19 -15
-16 -5 3 10 -36 34 -87 82 -174 147 -297 159 -301 7 -3 -1 -8 -17 -12 -24 -7
-32 -4 -47 16 -27 35 -209 394 -209 412 0 23 39 28 50 6 6 -10 16 -19 22 -19
7 0 6 5 -2 15 -15 18 -13 21 20 34 14 5 25 10 26 10 0 1 0 -9 1 -21z m83 -53
c0 -1 -11 -10 -24 -18 -23 -16 -23 -15 -13 7 6 13 17 21 24 19 7 -3 13 -6 13
-8z m164 -16 c31 -36 33 -73 6 -116 -35 -58 -85 -65 -130 -18 -19 20 -21 31
-17 85 6 71 14 80 74 80 34 0 46 -5 67 -31z m94 6 c-3 -3 -9 2 -12 12 -6 14
-5 15 5 6 7 -7 10 -15 7 -18z m3873 -161 c-176 -59 -291 -89 -406 -109 l-40
-6 50 32 c28 17 70 39 95 47 47 16 440 99 475 100 11 0 -68 -29 -174 -64z
m-2157 40 c10 -25 7 -158 -4 -174 -8 -12 -10 -10 -11 10 -1 22 -2 21 -10 -7
-12 -41 -37 -45 -33 -5 12 115 12 122 -6 122 -22 0 -31 -20 -23 -51 4 -15 3
-20 -5 -15 -11 6 -14 -3 -14 -44 -1 -3 2 -18 6 -35 5 -25 4 -27 -5 -12 -10 17
-12 16 -27 -14 -10 -18 -23 -35 -31 -37 -9 -3 -11 0 -6 9 6 11 5 12 -6 2 -17
-17 -29 -16 -29 0 0 8 16 64 35 125 25 77 42 116 57 127 30 20 104 20 112 -1z
m-1722 -16 c-7 -7 -12 -8 -12 -2 0 6 3 14 7 17 3 4 9 5 12 2 2 -3 -1 -11 -7
-17z m1419 -61 c13 -49 22 -207 12 -207 -5 0 -15 33 -21 73 -13 77 -24 97 -54
97 -14 0 -16 -6 -12 -27 3 -16 1 -55 -5 -88 -18 -99 -18 -100 2 -99 9 1 17 -2
17 -7 0 -13 -34 -11 -48 3 -17 17 -17 274 1 282 6 3 32 4 56 3 40 -2 45 -5 52
-30z m-3341 -42 c0 -33 -2 -35 -57 -50 -32 -9 -71 -21 -88 -26 -16 -5 -108
-29 -203 -54 -95 -24 -186 -53 -201 -64 -16 -11 -39 -44 -52 -73 l-24 -53 -3
-1251 -2 -1250 -35 -34 -35 -34 0 1296 c0 1410 -3 1336 56 1413 34 46 108 80
224 105 52 11 160 40 240 64 182 55 180 55 180 11z m1700 -29 c0 -6 -7 -1 -15
10 -8 10 -15 23 -15 28 0 6 7 1 15 -10 8 -10 15 -23 15 -28z m1434 38 c13 -5
16 -24 16 -104 0 -55 -4 -101 -9 -105 -12 -7 -18 14 -27 88 -5 46 -10 57 -24
57 -10 0 -21 -8 -24 -17 -11 -42 -18 -88 -21 -146 -3 -61 -3 -62 -34 -65 -17
-2 -31 0 -31 4 0 47 35 254 46 272 11 17 24 22 53 22 22 0 46 -3 55 -6z
m-1324 -28 c16 -42 23 -96 12 -96 -5 0 -13 16 -17 36 -3 20 -13 43 -21 51 -8
8 -12 19 -9 24 11 16 25 10 35 -15z m1747 -38 c-3 -8 -6 -5 -6 6 -1 11 2 17 5
13 3 -3 4 -12 1 -19z m-270 -35 c-3 -10 -5 -4 -5 12 0 17 2 24 5 18 2 -7 2
-21 0 -30z m1848 30 c-11 -3 -69 -21 -129 -39 -137 -43 -527 -115 -446 -83
107 43 483 127 565 127 20 0 23 -2 10 -5z m-1817 -44 c-3 -20 -5 -19 -9 9 -3
20 -2 29 4 23 5 -5 7 -19 5 -32z m2589 -4 c60 -25 140 -92 169 -140 17 -29 28
-65 31 -102 4 -54 -21 -460 -30 -469 -2 -2 -9 93 -16 212 -14 252 -20 275 -99
356 -93 96 -89 95 -395 70 -144 -12 -278 -22 -297 -21 -47 1 163 53 340 84
160 28 247 31 297 10z m-738 -10 c-61 -22 -103 -46 -121 -69 -16 -20 -18 -85
-18 -960 l0 -939 -45 6 c-25 4 -97 12 -160 18 l-115 12 0 409 0 409 -90 -3
-91 -3 -3 -70 c-4 -98 -37 -152 -108 -178 -17 -6 -18 -28 -18 -272 l0 -266
-147 3 c-110 2 -148 6 -149 16 -1 6 -2 126 -3 266 l-1 254 -35 12 c-49 16 -85
72 -92 145 -5 44 -12 63 -34 85 -17 17 -29 40 -30 57 0 15 -2 186 -2 380 l-2
351 65 6 c36 4 82 9 103 12 l37 6 0 -274 c0 -221 3 -278 14 -294 12 -16 27
-19 94 -19 52 0 85 5 95 14 15 12 17 46 17 301 l0 288 101 7 c55 4 101 6 102
4 1 -2 1 -176 -1 -386 -2 -351 -4 -382 -20 -386 -27 -7 78 -8 144 -1 l59 6 -3
488 -3 488 48 10 c27 6 111 22 188 37 77 14 158 30 180 35 62 12 84 10 44 -5z
m-3394 -13 c-3 -3 -11 0 -18 7 -9 10 -8 11 6 5 10 -3 15 -9 12 -12z m201 -122
c35 -80 42 -105 32 -112 -38 -26 -83 -45 -178 -74 -122 -39 -121 -39 -165 58
-30 66 -43 132 -28 141 5 3 42 13 83 21 40 9 100 29 134 45 33 16 65 28 69 27
5 -1 29 -48 53 -106z m-1867 67 c31 -33 32 -37 38 -139 7 -124 12 -116 -114
-147 -149 -36 -159 -40 -171 -66 -8 -16 -12 -85 -12 -184 l0 -159 -27 -10
c-16 -6 -65 -25 -111 -43 -184 -69 -38 -34 328 79 l225 70 3 96 c1 53 6 96 10
96 4 0 67 14 140 30 74 17 137 30 142 30 12 0 18 -43 23 -158 5 -92 4 -94 -21
-103 -47 -18 -17 -17 92 2 60 11 110 18 112 16 2 -2 -27 -14 -64 -27 -37 -13
-79 -29 -93 -36 l-27 -13 -1 -574 c-1 -316 1 -593 5 -616 9 -55 24 -58 175
-31 66 12 128 19 135 16 22 -8 16 -305 -6 -317 -26 -13 -473 -113 -525 -117
-44 -3 -53 0 -75 23 l-25 27 0 794 c0 701 -2 793 -15 789 -8 -2 -102 -25 -207
-51 l-193 -48 0 -152 c0 -84 3 -155 8 -157 4 -3 52 8 107 24 55 15 106 28 113
29 9 0 12 -36 12 -149 0 -123 -3 -152 -16 -165 -8 -9 -20 -16 -27 -16 -28 0
-170 -44 -183 -57 -12 -12 -14 -92 -14 -517 l0 -503 -117 -43 c-65 -24 -135
-51 -155 -62 -21 -10 -40 -18 -43 -18 -3 0 -5 539 -5 1198 0 1386 -12 1246
107 1282 137 41 389 108 414 109 16 1 36 -10 58 -32z m3202 -10 l-24 -22 19
27 c10 14 21 24 23 22 3 -3 -6 -15 -18 -27z m-2453 -27 c-7 -10 -14 -17 -17
-15 -4 4 18 35 25 35 2 0 -1 -9 -8 -20z m2010 -44 c-7 -21 -21 -44 -33 -51
-11 -8 -121 -50 -245 -94 -124 -44 -310 -111 -415 -149 -429 -157 -573 -193
-770 -194 -174 -1 -290 25 -436 98 -77 38 -176 115 -228 176 l-36 43 45 -36
c213 -169 551 -254 815 -205 124 24 307 77 450 132 66 25 260 97 430 160 171
63 337 125 370 138 33 13 61 22 62 21 1 0 -3 -18 -9 -39z m2994 -75 l32 -29 8
-163 c4 -90 5 -177 2 -192 l-6 -28 -166 1 c-92 1 -179 1 -194 1 l-28 -1 0
-179 c0 -199 -3 -191 69 -191 21 0 59 -3 85 -6 l46 -7 0 -138 0 -139 -100 6
-100 7 0 -184 c0 -101 4 -189 8 -196 4 -7 65 -26 135 -43 142 -33 171 -47 186
-92 12 -33 13 -151 2 -290 l-6 -86 -130 43 c-71 23 -210 62 -307 86 l-178 44
0 883 c0 697 3 883 13 886 14 5 445 32 534 34 56 2 66 -1 95 -27z m-3887 -121
c-26 -29 -146 -64 -190 -56 -56 11 -47 21 19 22 44 0 77 8 116 27 68 31 78 33
55 7z m1830 -22 c3 -13 9 -48 13 -80 10 -65 15 -61 -108 -73 -36 -3 -75 -8
-87 -11 l-23 -4 0 -620 0 -620 -38 0 c-22 0 -94 -3 -160 -7 l-122 -6 0 609 0
610 -72 -7 c-40 -4 -94 -8 -119 -8 l-46 -1 15 75 15 74 41 6 c56 7 658 82 673
84 7 0 15 -9 18 -21z m-827 -148 c-3 -39 -8 -74 -12 -77 -6 -6 -279 -41 -328
-42 -16 -1 -18 -15 -18 -147 l0 -146 133 7 c118 6 136 4 166 -13 70 -38 71
-44 71 -445 0 -404 -1 -409 -68 -426 -20 -5 -143 -21 -272 -36 -129 -14 -252
-28 -272 -32 l-38 -6 0 152 c0 83 3 151 8 151 51 2 337 51 347 60 12 10 15 45
15 176 l0 163 -144 -6 -145 -6 -29 30 c-39 38 -45 91 -40 368 3 230 7 247 63
265 16 5 138 23 270 40 132 17 245 32 250 35 6 2 18 4 29 4 17 1 18 -5 14 -69z
m-840 -171 c66 -23 67 -28 70 -394 3 -443 12 -427 -250 -460 l-48 -6 -2 -362
-3 -362 -115 -16 c-63 -9 -136 -19 -162 -22 l-48 -7 0 789 0 789 83 12 c88 12
388 47 423 49 12 1 35 -4 52 -10z m-758 -81 l21 -23 -3 -687 c-2 -377 -6 -689
-10 -693 -10 -11 -297 -57 -313 -51 -13 5 -15 104 -15 721 0 563 3 717 13 720
14 6 219 32 259 34 16 1 36 -8 48 -21z m1506 -10 c18 -20 18 -21 1 -15 -10 4
-46 7 -80 7 -67 0 -69 16 -2 23 22 2 45 4 51 5 6 1 19 -8 30 -20z m-331 -608
c-33 -4 -85 -8 -115 -7 -53 0 -54 0 -15 7 22 4 74 7 115 7 l75 0 -60 -7z
m3464 -254 c52 -49 54 -70 46 -387 -4 -159 -10 -289 -14 -289 -3 0 -16 16 -28
35 -22 33 -23 43 -23 272 0 210 -3 243 -19 278 -23 51 -68 92 -117 111 -39 14
-38 14 43 12 75 -3 84 -6 112 -32z m-2859 -336 c-460 -52 -700 -77 -840 -85
-116 -6 -61 5 210 45 295 43 568 68 735 68 l140 0 -245 -28z m830 -146 c-190
-24 -457 -57 -595 -74 -385 -48 -635 -83 -1015 -142 -264 -41 -265 -41 -295
-73 -62 -66 -140 -87 -385 -105 -85 -6 -208 -15 -272 -20 -64 -6 -125 -10
-135 -9 -52 2 260 72 465 104 89 13 177 31 195 39 18 7 49 32 69 55 19 23 44
41 55 41 11 0 137 18 279 40 529 80 1083 151 1329 169 212 16 237 17 455 18
l195 1 -345 -44z m1085 -5 c77 -11 186 -31 242 -44 113 -25 364 -98 358 -103
-1 -2 -56 8 -121 23 -66 14 -261 55 -434 90 -309 63 -323 74 -45 34z m-226
-173 c-12 -12 -478 -90 -487 -82 -6 6 205 55 283 65 115 16 211 23 204 17z
m-3599 -57 c-200 -51 -822 -181 -855 -178 -23 1 164 52 365 98 278 65 701 133
490 80z m2908 6 c-5 -5 -468 -93 -686 -129 -262 -44 -879 -122 -888 -113 -3 2
64 18 148 35 84 17 230 47 323 66 223 46 535 90 820 116 127 11 237 22 245 24
25 6 44 6 38 1z m551 -29 c-7 -7 -214 -53 -319 -71 -121 -21 -449 -55 -515
-54 -27 1 -41 3 -30 6 47 10 484 92 525 99 25 4 101 10 170 14 69 4 136 8 149
8 13 1 22 0 20 -2z"/>
<path d="M5490 8522 c-116 -67 -130 -77 -125 -89 2 -7 1 -12 -3 -11 -15 5 -62
-36 -101 -88 -46 -61 -47 -66 -26 -84 22 -18 46 3 26 23 -10 10 -11 9 -6 -5 4
-10 3 -18 -3 -18 -20 0 -21 32 -1 53 14 15 18 17 14 6 -4 -10 -2 -20 4 -24 6
-3 11 -1 11 4 0 10 19 36 48 66 23 25 12 29 -13 5 -14 -13 -25 -19 -25 -13 0
5 9 18 20 28 16 15 22 16 35 5 14 -12 15 -10 10 12 -6 23 -4 25 29 23 19 0 39
-5 43 -9 4 -5 -2 -6 -15 -3 -12 3 -20 1 -16 -4 3 -5 10 -9 16 -9 6 0 17 -8 24
-17 12 -17 13 -16 11 5 -1 13 -14 34 -29 47 -16 13 -24 26 -19 29 5 3 14 0 20
-8 12 -14 40 -12 79 7 26 13 28 24 5 30 -10 3 6 4 35 3 28 -2 52 1 52 6 0 4
-11 8 -24 8 -14 0 -28 5 -31 10 -4 6 -12 7 -18 4 -8 -5 -8 -3 1 7 9 10 15 10
24 1 15 -15 38 -16 38 -2 0 6 -7 10 -15 10 -9 0 -12 6 -9 15 8 20 8 20 -66
-23z"/>
<path d="M5584 8535 c11 -8 16 -15 10 -15 -5 0 0 -7 10 -15 11 -8 34 -14 50
-14 29 1 29 2 -7 9 -52 10 -56 18 -8 17 23 -1 41 -5 41 -9 0 -5 11 -8 24 -8
14 0 27 -4 30 -9 3 -4 -6 -6 -19 -3 -14 2 -25 0 -25 -5 0 -5 -12 -10 -27 -11
-55 -4 -28 -8 82 -10 63 -1 116 2 119 7 7 10 -241 74 -254 66 -5 -3 -11 -1
-15 5 -3 5 -12 10 -18 10 -7 0 -3 -7 7 -15z"/>
<path d="M5586 8465 c-18 -13 -18 -14 2 -12 11 0 19 4 16 8 -2 4 2 10 8 12 7
3 9 6 3 6 -5 0 -18 -6 -29 -14z"/>
<path d="M5748 8443 c7 -3 16 -2 19 1 4 3 -2 6 -13 5 -11 0 -14 -3 -6 -6z"/>
<path d="M6028 8423 c6 -2 18 -2 25 0 6 3 1 5 -13 5 -14 0 -19 -2 -12 -5z"/>
<path d="M5636 8411 c-4 -5 3 -7 14 -4 23 6 26 13 6 13 -8 0 -17 -4 -20 -9z"/>
<path d="M5952 8413 c-13 -3 -19 -9 -16 -15 5 -7 2 -8 -5 -3 -13 8 -282 -45
-276 -55 1 -3 -22 -6 -53 -7 -31 -2 -58 -6 -61 -10 -3 -5 -21 -9 -39 -10 -18
-1 -40 -7 -50 -13 -13 -9 -7 -10 28 -6 44 6 44 5 15 -7 l-30 -14 39 -6 c22 -3
45 -3 50 2 22 17 190 36 181 20 -4 -5 -17 -9 -31 -9 -13 0 -24 -4 -24 -9 0 -5
8 -8 18 -6 9 2 37 4 62 5 36 2 40 3 20 9 -24 7 -6 9 132 13 15 1 25 5 22 10
-4 6 -26 7 -51 3 -31 -4 -43 -3 -39 4 4 7 1 8 -8 5 -9 -4 -16 -1 -16 6 0 8
-13 10 -42 6 -31 -4 -36 -3 -18 3 14 5 50 7 80 5 48 -3 51 -2 20 6 -30 7 -27
8 20 5 54 -5 108 12 103 32 -2 4 19 6 46 5 29 -2 52 1 56 8 4 6 5 13 4 14 -8
6 -115 13 -137 9z m-42 -43 c18 -12 2 -12 -25 0 -13 6 -15 9 -5 9 8 0 22 -4
30 -9z m-100 -14 c0 -2 -11 -6 -25 -8 -14 -3 -25 -1 -25 3 0 5 11 9 25 9 14 0
25 -2 25 -4z m-204 -54 c-10 -2 -22 0 -28 6 -6 6 0 7 19 4 21 -5 23 -7 9 -10z
m187 1 c-7 -2 -19 -2 -25 0 -7 3 -2 5 12 5 14 0 19 -2 13 -5z"/>
<path d="M5582 8400 c-12 -5 -29 -7 -37 -4 -8 4 -15 1 -15 -5 0 -6 -15 -11
-32 -12 -18 0 -27 -3 -20 -6 18 -7 132 17 132 28 0 5 -1 9 -2 8 -2 0 -13 -4
-26 -9z"/>
<path d="M6112 8388 c-17 -17 -15 -28 3 -22 8 4 35 0 60 -7 l44 -13 -27 -13
c-26 -11 -25 -12 18 -10 58 3 83 23 39 32 -17 4 -42 13 -56 20 -15 8 -30 12
-35 9 -5 -3 -15 -1 -22 5 -9 7 -16 7 -24 -1z"/>
<path d="M5336 8341 c-15 -17 -15 -18 6 -16 23 2 35 19 20 29 -5 3 -17 -3 -26
-13z"/>
<path d="M6120 8351 c0 -5 14 -9 31 -9 20 1 26 4 17 9 -18 12 -48 11 -48 0z"/>
<path d="M5418 8343 c6 -2 18 -2 25 0 6 3 1 5 -13 5 -14 0 -19 -2 -12 -5z"/>
<path d="M6335 8310 c22 -10 47 -19 55 -19 13 -1 13 -2 0 -11 -11 -8 -7 -9 14
-4 18 4 27 3 23 -3 -10 -16 41 -35 61 -22 16 10 16 10 0 5 -9 -2 -22 1 -28 9
-12 15 -133 65 -153 64 -6 0 6 -9 28 -19z"/>
<path d="M6018 8303 c7 -3 16 -2 19 1 4 3 -2 6 -13 5 -11 0 -14 -3 -6 -6z"/>
<path d="M5985 8290 c11 -5 29 -8 40 -8 16 0 15 2 -5 8 -34 11 -60 11 -35 0z"/>
<path d="M6058 8293 c7 -3 16 -2 19 1 4 3 -2 6 -13 5 -11 0 -14 -3 -6 -6z"/>
<path d="M5388 8283 c7 -3 16 -2 19 1 4 3 -2 6 -13 5 -11 0 -14 -3 -6 -6z"/>
<path d="M6330 8280 c8 -5 22 -9 30 -9 10 0 8 3 -5 9 -27 12 -43 12 -25 0z"/>
<path d="M5360 8271 c8 -6 25 -11 37 -11 12 0 29 -7 37 -16 14 -13 16 -13 16
-1 0 9 -13 18 -32 22 -18 4 -42 9 -53 11 -16 4 -17 3 -5 -5z"/>
<path d="M5893 8273 c15 -2 39 -2 55 0 15 2 2 4 -28 4 -30 0 -43 -2 -27 -4z"/>
<path d="M6070 8266 c0 -2 7 -6 15 -10 8 -3 15 -1 15 4 0 6 -7 10 -15 10 -8 0
-15 -2 -15 -4z"/>
<path d="M5475 8253 c26 -7 66 -34 61 -42 -2 -3 14 -7 37 -7 l42 -1 -43 15
c-24 8 -46 20 -49 28 -3 8 -18 14 -37 13 -20 -1 -24 -3 -11 -6z"/>
<path d="M5700 8243 l-45 -13 50 7 c28 3 70 10 95 14 l45 7 -50 -1 c-27 -1
-70 -7 -95 -14z"/>
<path d="M6008 8253 c12 -2 30 -2 40 0 9 3 -1 5 -23 4 -22 0 -30 -2 -17 -4z"/>
<path d="M5338 8243 c7 -3 16 -2 19 1 4 3 -2 6 -13 5 -11 0 -14 -3 -6 -6z"/>
<path d="M5400 8240 c8 -5 20 -10 25 -10 6 0 3 5 -5 10 -8 5 -19 10 -25 10 -5
0 -3 -5 5 -10z"/>
<path d="M6118 8233 c7 -3 16 -2 19 1 4 3 -2 6 -13 5 -11 0 -14 -3 -6 -6z"/>
<path d="M6178 8233 c7 -3 16 -2 19 1 4 3 -2 6 -13 5 -11 0 -14 -3 -6 -6z"/>
<path d="M6225 8223 c-31 -7 -40 -21 -11 -16 15 3 29 9 32 14 3 5 4 8 2 8 -2
-1 -12 -3 -23 -6z"/>
<path d="M6283 8218 c-33 -9 -50 -24 -38 -36 3 -4 11 1 16 11 6 9 20 16 32 16
17 -1 18 -2 5 -6 -10 -2 -18 -9 -18 -14 0 -6 5 -7 11 -4 6 4 21 10 35 14 22 6
22 7 7 17 -12 7 -30 7 -50 2z"/>
<path d="M5188 8213 c7 -3 16 -2 19 1 4 3 -2 6 -13 5 -11 0 -14 -3 -6 -6z"/>
<path d="M5490 8210 c-12 -8 -10 -10 8 -10 13 0 20 4 17 10 -7 12 -6 12 -25 0z"/>
<path d="M5228 8203 c6 -2 18 -2 25 0 6 3 1 5 -13 5 -14 0 -19 -2 -12 -5z"/>
<path d="M5195 8190 c9 -14 55 -21 73 -10 16 11 16 11 0 6 -9 -3 -31 -1 -48 4
-17 5 -28 5 -25 0z"/>
<path d="M6601 8189 c-18 -6 -31 -12 -29 -15 8 -7 68 8 68 17 0 5 -1 9 -2 8
-2 0 -18 -5 -37 -10z"/>
<path d="M5315 8173 c16 -3 33 -10 37 -16 5 -8 8 -6 8 6 0 13 -8 17 -37 16
-35 -2 -35 -2 -8 -6z"/>
<path d="M6520 8166 c0 -2 11 -6 25 -8 13 -3 22 -1 19 3 -5 9 -44 13 -44 5z"/>
<path d="M6610 8160 c0 -5 4 -10 9 -10 6 0 13 5 16 10 3 6 -1 10 -9 10 -9 0
-16 -4 -16 -10z"/>
<path d="M6470 8150 c-9 -6 -10 -10 -3 -10 6 0 15 5 18 10 8 12 4 12 -15 0z"/>
<path d="M3366 8107 c-14 -27 -15 -29 -1 -12 9 11 21 19 26 18 11 -4 12 14 1
21 -5 3 -16 -9 -26 -27z"/>
<path d="M6665 8105 c-33 -14 -69 -29 -80 -34 -11 -5 -37 -15 -57 -21 -21 -6
-38 -13 -38 -15 0 -5 60 2 67 9 4 3 22 3 40 0 24 -4 33 -3 33 7 0 10 3 10 11
2 13 -13 42 -6 33 8 -3 5 6 9 20 9 14 0 26 -5 26 -10 0 -6 8 -10 17 -8 11 2
19 -6 23 -22 6 -24 7 -24 17 -5 12 21 41 25 76 10 32 -13 26 -1 -14 27 -41 29
-50 30 -23 4 8 -9 11 -16 5 -16 -6 0 -17 13 -26 30 -14 27 -43 51 -62 50 -4
-1 -35 -12 -68 -25z m114 -54 c-15 -5 -22 6 -14 19 6 9 10 9 16 -1 5 -8 4 -15
-2 -18z"/>
<path d="M6568 8113 c7 -3 16 -2 19 1 4 3 -2 6 -13 5 -11 0 -14 -3 -6 -6z"/>
<path d="M3051 8032 c-17 -31 -13 -40 5 -14 9 13 14 26 11 29 -3 2 -10 -4 -16
-15z"/>
<path d="M6459 8032 c-14 -6 -14 -9 -4 -19 10 -9 14 -8 18 8 3 10 4 19 4 18
-1 0 -9 -3 -18 -7z"/>
<path d="M6565 8030 c3 -5 11 -10 16 -10 6 0 7 5 4 10 -3 6 -11 10 -16 10 -6
0 -7 -4 -4 -10z"/>
<path d="M6510 7995 c-7 -9 -8 -15 -2 -15 5 0 12 7 16 15 3 8 4 15 2 15 -2 0
-9 -7 -16 -15z"/>
<path d="M6526 7973 c-6 -14 -5 -15 5 -6 7 7 10 15 7 18 -3 3 -9 -2 -12 -12z"/>
<path d="M6558 7963 c7 -3 16 -2 19 1 4 3 -2 6 -13 5 -11 0 -14 -3 -6 -6z"/>
<path d="M6920 7959 c-12 -9 -12 -10 4 -5 27 9 56 -2 49 -20 -3 -7 -13 -14
-22 -14 -14 0 -14 2 -1 10 24 15 5 22 -26 9 -16 -6 -45 -11 -64 -10 -19 1 -55
-3 -80 -9 -25 -6 -54 -13 -65 -15 -11 -2 -40 -10 -64 -16 -36 -10 -41 -14 -25
-20 26 -10 42 -10 25 0 -9 6 -4 10 18 13 38 6 52 -9 20 -20 -16 -6 -8 -8 30
-8 52 1 52 2 4 33 -17 11 -16 11 3 6 12 -2 25 0 28 6 4 6 12 11 19 11 6 0 3
-6 -6 -12 -15 -12 -15 -14 9 -25 20 -9 25 -9 21 0 -3 9 7 11 33 9 21 -2 41 1
44 7 4 6 22 11 39 11 35 1 73 19 72 35 -1 32 -36 45 -65 24z"/>
<path d="M6548 7943 c6 -2 18 -2 25 0 6 3 1 5 -13 5 -14 0 -19 -2 -12 -5z"/>
<path d="M6971 7887 c-17 -17 -13 -31 4 -17 12 10 15 9 15 -5 0 -11 5 -15 15
-12 8 4 17 2 20 -3 4 -6 0 -10 -7 -10 -8 0 -6 -5 5 -11 9 -5 22 -7 27 -4 11 7
8 41 -5 52 -4 5 -5 2 -1 -4 11 -20 -18 -15 -41 6 -15 14 -23 17 -32 8z"/>
<path d="M7074 7855 c3 -23 24 -41 35 -29 6 5 1 16 -14 26 -19 15 -23 15 -21
3z"/>
<path d="M6585 7834 c-10 -10 -13 -24 -9 -38 4 -11 7 -27 7 -33 0 -7 4 -13 9
-13 11 0 10 13 -2 44 -12 33 1 34 17 1 12 -27 7 -68 -8 -59 -5 3 -9 -2 -9 -10
0 -30 17 -24 28 10 8 28 7 43 -4 71 -14 32 -14 35 0 30 9 -4 16 -2 16 3 0 16
-27 12 -45 -6z"/>
<path d="M6957 7753 c-4 -3 -7 -11 -7 -17 0 -7 3 -7 8 0 4 7 16 14 27 17 19 5
19 5 -1 6 -11 0 -24 -2 -27 -6z"/>
<path d="M7180 7745 c0 -9 -4 -14 -9 -11 -5 3 -76 -17 -157 -44 -103 -35 -135
-49 -104 -46 27 3 37 2 26 -3 -19 -7 -18 -8 5 -14 20 -6 21 -9 9 -17 -8 -5
-24 -9 -35 -9 -16 1 -15 2 5 8 l25 7 -28 8 c-26 6 -87 -10 -87 -24 0 -6 34 -9
103 -9 34 -1 47 -5 47 -15 0 -8 -6 -17 -12 -19 -7 -3 6 -6 30 -6 38 -1 42 1
42 24 0 20 5 25 24 25 14 0 28 5 31 10 10 17 25 11 25 -10 0 -17 7 -20 40 -20
22 0 40 5 40 10 0 6 -13 10 -30 10 -37 0 -38 12 -3 39 14 12 24 23 22 25 -2 2
-19 13 -38 24 -31 19 -32 20 -11 27 12 4 24 4 27 1 4 -3 -2 -6 -13 -7 -17 0
-16 -1 4 -9 12 -5 30 -6 39 -3 12 5 14 3 8 -8 -8 -12 -6 -12 8 0 18 15 23 26
7 16 -5 -3 -10 -1 -10 5 0 6 -5 8 -12 4 -10 -6 -10 -5 -2 7 9 11 9 17 -2 27
-12 11 -14 10 -14 -3z m-75 -45 c-3 -5 -12 -10 -18 -10 -7 0 -6 4 3 10 19 12
23 12 15 0z"/>
<path d="M6879 7748 c-9 -30 -5 -34 25 -29 l31 6 -30 4 c-30 4 -30 4 -5 11 24
8 24 8 3 9 -13 1 -23 0 -24 -1z"/>
<path d="M6808 7723 c7 -3 16 -2 19 1 4 3 -2 6 -13 5 -11 0 -14 -3 -6 -6z"/>
<path d="M6735 7683 c-18 -14 -18 -15 -2 -9 10 3 23 6 28 6 5 0 9 5 9 10 0 14
-12 12 -35 -7z"/>
<path d="M6605 7680 c-3 -5 -1 -10 4 -10 6 0 11 5 11 10 0 6 -2 10 -4 10 -3 0
-8 -4 -11 -10z"/>
<path d="M6688 7674 c-5 -4 -35 -10 -70 -13 -5 -1 -8 -5 -8 -10 0 -10 80 7 95
20 5 6 5 9 -1 9 -6 0 -13 -3 -16 -6z"/>
<path d="M7240 7653 c-20 -8 -44 -33 -31 -33 5 0 13 5 16 10 3 6 20 10 36 10
18 0 28 4 24 10 -7 11 -22 12 -45 3z"/>
<path d="M6789 7622 c-14 -6 -15 -9 -3 -20 12 -10 14 -10 14 2 0 8 8 17 18 19
11 3 12 5 2 5 -8 0 -22 -2 -31 -6z"/>
<path d="M6670 7585 c-33 -19 -21 -19 21 0 19 8 27 14 19 14 -8 0 -26 -6 -40
-14z"/>
<path d="M7270 7591 c0 -6 5 -13 10 -16 6 -3 10 1 10 9 0 9 -4 16 -10 16 -5 0
-10 -4 -10 -9z"/>
<path d="M7190 7510 c8 -5 20 -10 25 -10 6 0 3 5 -5 10 -8 5 -19 10 -25 10 -5
0 -3 -5 5 -10z"/>
<path d="M6705 7481 c-3 -5 -2 -12 3 -15 5 -3 9 1 9 9 0 17 -3 19 -12 6z"/>
<path d="M7397 7469 c-9 -6 -25 -12 -35 -14 -9 -2 -30 -9 -47 -16 -16 -6 -37
-13 -46 -15 -9 -2 -71 -22 -138 -44 -67 -22 -129 -40 -137 -40 -8 0 -14 -4
-14 -10 0 -5 14 -10 30 -10 17 0 30 -5 30 -10 0 -6 13 -4 30 5 37 19 50 19 50
-1 0 -11 5 -14 18 -9 9 4 31 13 47 19 17 6 36 16 43 23 6 6 21 15 33 18 11 4
18 9 16 12 -3 2 -19 -3 -35 -11 -27 -14 -34 -14 -64 -1 -26 11 -29 14 -11 15
12 0 43 9 70 20 32 13 41 15 29 5 -11 -8 -25 -15 -32 -15 -6 0 -17 -7 -24 -15
-19 -23 70 14 101 42 27 25 54 31 44 11 -4 -7 0 -5 8 4 8 10 16 16 18 14 2 -3
15 4 29 14 26 21 17 27 -13 9z"/>
<path d="M7213 7463 c9 -2 23 -2 30 0 6 3 -1 5 -18 5 -16 0 -22 -2 -12 -5z"/>
<path d="M7426 7448 c4 -7 3 -8 -5 -4 -6 4 -18 1 -26 -7 -13 -13 -10 -16 21
-21 22 -5 32 -11 28 -18 -5 -8 -1 -9 10 -5 10 4 22 7 27 7 6 0 7 5 4 10 -4 6
-11 7 -17 4 -7 -4 -8 -2 -4 5 4 6 2 18 -4 26 -15 18 -45 20 -34 3z m21 -24
c-3 -3 -12 -4 -19 -1 -8 3 -5 6 6 6 11 1 17 -2 13 -5z"/>
<path d="M7078 7433 c6 -2 18 -2 25 0 6 3 1 5 -13 5 -14 0 -19 -2 -12 -5z"/>
<path d="M6868 7423 c7 -3 16 -2 19 1 4 3 -2 6 -13 5 -11 0 -14 -3 -6 -6z"/>
<path d="M7013 7423 c9 -2 25 -2 35 0 9 3 1 5 -18 5 -19 0 -27 -2 -17 -5z"/>
<path d="M6928 7413 c7 -3 16 -2 19 1 4 3 -2 6 -13 5 -11 0 -14 -3 -6 -6z"/>
<path d="M6918 7393 c7 -3 16 -2 19 1 4 3 -2 6 -13 5 -11 0 -14 -3 -6 -6z"/>
<path d="M6815 7370 c-13 -5 -14 -9 -5 -9 8 0 24 4 35 9 13 5 14 9 5 9 -8 0
-24 -4 -35 -9z"/>
<path d="M7452 7350 c-30 -9 -57 -21 -60 -26 -4 -5 -25 -11 -46 -12 -22 -2
-49 -8 -60 -12 -18 -7 -16 -9 17 -15 26 -5 42 -3 54 6 9 8 14 9 11 3 -4 -6 7
-10 30 -11 20 0 31 2 25 4 -7 3 -13 11 -13 19 0 11 9 13 43 7 23 -4 54 -8 70
-8 15 0 25 -5 23 -11 -2 -6 2 -11 9 -11 10 0 8 11 -8 38 -12 21 -26 40 -32 42
-5 2 -34 -4 -63 -13z"/>
<path d="M7271 7340 c10 -7 49 -2 49 5 0 2 -14 3 -31 3 -17 -1 -25 -4 -18 -8z"/>
<path d="M6950 7322 c0 -5 -12 -13 -27 -18 -27 -9 -27 -10 11 -10 21 0 34 2
28 4 -6 2 -8 10 -5 18 3 8 2 14 -1 14 -3 0 -6 -4 -6 -8z"/>
<path d="M7238 7323 c7 -3 16 -2 19 1 4 3 -2 6 -13 5 -11 0 -14 -3 -6 -6z"/>
<path d="M6988 7303 c6 -2 18 -2 25 0 6 3 1 5 -13 5 -14 0 -19 -2 -12 -5z"/>
<path d="M7430 7300 c8 -5 26 -10 39 -10 32 0 24 6 -19 14 -25 4 -31 3 -20 -4z"/>
<path d="M6867 7289 c7 -7 15 -10 18 -7 3 3 -2 9 -12 12 -14 6 -15 5 -6 -5z"/>
<path d="M6930 7280 c0 -5 5 -10 11 -10 5 0 7 5 4 10 -3 6 -8 10 -11 10 -2 0
-4 -4 -4 -10z"/>
<path d="M7211 7281 c-8 -6 -9 -11 -3 -15 6 -3 14 -1 17 5 9 14 2 20 -14 10z"/>
<path d="M7017 7266 c-6 -15 1 -26 15 -26 4 0 8 9 8 20 0 23 -15 27 -23 6z"/>
<path d="M7567 7263 c-4 -3 -7 -11 -7 -17 0 -6 5 -4 10 4 8 13 10 12 10 -2 0
-10 5 -18 10 -18 7 0 7 6 0 20 -12 22 -14 23 -23 13z"/>
<path d="M6890 7252 c0 -5 7 -17 16 -28 14 -17 15 -17 10 -1 -3 10 -6 23 -6
28 0 5 -4 9 -10 9 -5 0 -10 -4 -10 -8z"/>
<path d="M6920 7250 c0 -5 7 -13 16 -18 14 -8 14 -10 -1 -25 -9 -10 -11 -17
-5 -17 6 0 9 -4 6 -9 -3 -5 1 -11 9 -15 17 -6 21 9 5 19 -8 5 -7 11 0 20 8 10
8 19 0 34 -11 22 -30 29 -30 11z"/>
<path d="M7455 7250 c-3 -5 1 -10 9 -10 9 0 16 5 16 10 0 6 -4 10 -9 10 -6 0
-13 -4 -16 -10z"/>
<path d="M7273 7183 c4 -6 2 -13 -5 -15 -8 -3 -6 -6 4 -10 17 -7 19 15 3 29
-4 4 -5 3 -2 -4z"/>
<path d="M7620 7150 c0 -6 6 -10 14 -10 8 0 16 -13 18 -30 3 -16 1 -30 -4 -30
-4 0 -8 11 -8 25 0 15 -6 25 -14 25 -8 0 -16 6 -19 13 -4 10 -7 10 -18 0 -7
-7 -24 -13 -38 -13 -37 0 -241 -62 -235 -72 3 -4 12 -8 20 -8 8 0 12 5 9 10
-3 6 -1 10 4 10 6 0 11 -4 11 -10 0 -5 10 -10 23 -10 15 0 18 3 9 8 -8 6 -1
12 23 19 33 10 35 10 23 -4 -11 -14 -11 -15 7 -6 11 6 32 13 47 17 23 5 26 4
21 -11 -6 -17 -5 -17 12 0 12 13 29 18 52 15 23 -3 33 0 33 10 0 7 4 11 10 7
5 -3 7 -12 4 -19 -6 -16 36 -30 50 -16 11 11 -18 76 -39 84 -8 3 -15 1 -15 -4z
m-120 -50 c0 -5 -10 -10 -22 -10 -19 0 -20 2 -8 10 19 13 30 13 30 0z"/>
<path d="M7150 7130 c0 -5 5 -10 10 -10 6 0 10 5 10 10 0 6 -4 10 -10 10 -5 0
-10 -4 -10 -10z"/>
<path d="M6975 7110 c-3 -6 1 -7 9 -4 18 7 21 14 7 14 -6 0 -13 -4 -16 -10z"/>
<path d="M7080 7110 c-20 -6 -21 -8 -5 -8 11 0 31 4 45 8 20 6 21 8 5 8 -11 0
-31 -4 -45 -8z"/>
<path d="M7600 7060 c0 -5 5 -10 10 -10 6 0 10 5 10 10 0 6 -4 10 -10 10 -5 0
-10 -4 -10 -10z"/>
<path d="M7188 7031 c-32 -10 -74 -22 -95 -26 -27 -5 -33 -9 -22 -16 11 -7 10
-9 -6 -9 -17 -1 -17 -2 4 -11 30 -12 55 6 31 21 -13 8 -12 10 3 10 9 0 17 -7
17 -17 0 -15 2 -14 16 3 8 10 13 14 10 7 -7 -13 64 -7 99 9 15 6 12 7 -12 4
-33 -5 -52 7 -32 20 8 5 9 3 4 -6 -6 -10 -4 -12 9 -7 10 4 22 7 27 7 6 0 8 4
5 9 -4 5 0 12 6 14 31 13 -12 4 -64 -12z"/>
<path d="M7670 7041 c0 -5 -8 -12 -17 -15 -10 -3 -6 -4 9 -2 23 3 27 -1 25
-18 -1 -13 3 -20 12 -18 9 2 11 -3 7 -14 -5 -14 -4 -15 8 -4 14 11 14 14 1 27
-14 13 -19 28 -16 46 0 4 -6 7 -14 7 -8 0 -15 -4 -15 -9z"/>
<path d="M7464 7031 c-5 -5 -18 -11 -29 -14 -15 -4 -14 -5 7 -6 15 0 30 4 33
10 9 14 1 21 -11 10z"/>
<path d="M7300 7020 c-11 -8 -7 -9 15 -4 37 8 45 14 19 14 -10 0 -26 -5 -34
-10z"/>
<path d="M7330 6984 c-32 -13 -32 -14 -5 -8 17 4 41 6 55 6 20 -2 22 0 10 8
-18 12 -17 12 -60 -6z"/>
<path d="M7267 6964 c-3 -4 -30 -15 -59 -25 -34 -11 -45 -18 -29 -18 20 -1 21
-3 11 -16 -9 -10 -9 -15 -1 -15 6 0 11 5 11 10 0 6 10 10 23 11 21 1 21 1 -3
8 -23 7 -21 8 18 15 23 4 40 11 37 16 -3 5 1 11 7 13 7 3 8 6 2 6 -6 1 -13 -2
-17 -5z"/>
<path d="M7514 6962 c4 -7 0 -12 -11 -13 -16 0 -16 -1 2 -9 l20 -9 -20 -1
c-15 -1 -16 -3 -5 -7 8 -3 17 -10 20 -14 3 -5 19 -4 35 0 l30 9 -32 1 c-26 1
-31 5 -28 21 2 11 -1 23 -7 26 -7 4 -8 2 -4 -4z"/>
<path d="M7615 6930 c-14 -7 -8 -8 20 -3 22 3 42 7 44 9 9 8 -45 2 -64 -6z"/>
<path d="M7675 6905 c-33 -13 -91 -31 -130 -41 -55 -14 -65 -19 -50 -26 15 -6
11 -7 -12 -4 -18 3 -35 1 -38 -4 -3 -6 -1 -10 6 -10 7 0 9 -3 6 -6 -4 -4 -14
-1 -24 7 -14 11 -15 11 -9 0 6 -10 4 -12 -10 -7 -11 3 -41 -1 -69 -10 -27 -8
-61 -17 -75 -20 -33 -6 -139 -45 -144 -53 -7 -12 20 -125 28 -113 4 7 4 17 1
22 -9 14 8 12 24 -2 11 -11 11 -9 2 10 -7 13 -10 28 -7 35 2 7 5 5 5 -5 1 -9
6 -20 12 -24 9 -5 10 1 5 20 -3 14 -2 26 3 26 5 0 11 7 15 15 4 11 -2 15 -20
15 -14 0 -23 -4 -20 -9 3 -5 -5 -8 -19 -7 -36 2 -31 14 9 22 40 7 98 -3 108
-20 4 -6 6 -1 5 12 -1 15 -6 20 -18 17 -9 -3 -27 -1 -40 4 -22 9 -21 10 14 10
21 1 54 8 75 16 l37 15 -30 -25 c-33 -27 -14 -36 21 -10 27 20 50 20 30 -1 -9
-8 -16 -17 -16 -18 0 -7 61 7 66 15 3 5 16 9 29 9 13 0 27 5 30 10 3 6 1 10
-4 10 -6 0 -11 5 -11 10 0 6 12 10 26 10 16 0 23 4 18 11 -4 8 1 9 16 4 15 -5
20 -4 16 4 -4 7 1 11 13 11 11 0 23 -4 26 -10 3 -5 12 -10 18 -10 7 0 6 4 -3
10 -12 7 -10 11 10 20 22 9 20 10 -15 6 l-40 -5 35 16 c19 8 49 16 65 17 17 0
36 9 43 19 9 11 21 16 33 12 11 -4 19 -2 19 5 0 7 9 2 20 -11 l20 -24 -11 28
c-14 32 -17 32 -94 2z m-515 -228 c0 -18 -2 -19 -10 -7 -13 20 -13 43 0 35 6
-3 10 -16 10 -28z"/>
<path d="M7325 6910 c3 -5 13 -10 21 -10 8 0 14 5 14 10 0 6 -9 10 -21 10 -11
0 -17 -4 -14 -10z"/>
<path d="M7093 6903 c-13 -2 -23 -8 -23 -13 0 -5 12 -7 26 -4 18 3 23 1 18 -7
-4 -8 -3 -9 5 -5 6 4 9 11 6 16 -3 5 3 11 12 13 15 4 14 5 -2 4 -11 0 -30 -2
-42 -4z"/>
<path d="M7258 6893 c7 -3 16 -2 19 1 4 3 -2 6 -13 5 -11 0 -14 -3 -6 -6z"/>
<path d="M7702 6884 c-11 -12 -9 -14 7 -14 11 0 27 -3 37 -7 12 -4 15 -2 12 8
-3 8 -11 14 -19 14 -8 0 -16 3 -19 6 -3 4 -11 1 -18 -7z"/>
<path d="M7309 6871 c11 -7 9 -10 -8 -16 -13 -4 -21 -9 -18 -11 2 -3 17 0 33
6 23 9 25 13 14 20 -8 6 -19 10 -25 10 -5 0 -4 -4 4 -9z"/>
<path d="M7398 6873 c7 -3 16 -2 19 1 4 3 -2 6 -13 5 -11 0 -14 -3 -6 -6z"/>
<path d="M7188 6863 c6 -2 18 -2 25 0 6 3 1 5 -13 5 -14 0 -19 -2 -12 -5z"/>
<path d="M7250 6860 c-18 -12 -2 -12 25 0 13 6 15 9 5 9 -8 0 -22 -4 -30 -9z"/>
<path d="M7708 6853 c7 -3 16 -2 19 1 4 3 -2 6 -13 5 -11 0 -14 -3 -6 -6z"/>
<path d="M7318 6723 c7 -3 16 -2 19 1 4 3 -2 6 -13 5 -11 0 -14 -3 -6 -6z"/>
<path d="M7525 6680 c-4 -6 8 -10 29 -10 20 0 36 5 36 10 0 6 -13 10 -29 10
-17 0 -33 -4 -36 -10z"/>
<path d="M7715 6630 c-13 -6 -15 -9 -5 -9 8 0 22 4 30 9 18 12 2 12 -25 0z"/>
<path d="M7520 6609 c0 -5 9 -9 20 -9 11 0 20 2 20 4 0 2 -9 6 -20 9 -11 3
-20 1 -20 -4z"/>
<path d="M7588 6613 c7 -3 16 -2 19 1 4 3 -2 6 -13 5 -11 0 -14 -3 -6 -6z"/>
<path d="M7635 6610 c-25 -11 1 -11 35 0 20 6 21 8 5 8 -11 0 -29 -3 -40 -8z"/>
<path d="M7154 6584 c-4 -14 -2 -40 4 -57 l11 -32 -5 34 c-4 19 -2 31 3 28 5
-3 7 7 5 24 -5 36 -10 37 -18 3z"/>
<path d="M7840 6573 c-8 -3 -26 -11 -40 -16 -14 -6 -29 -11 -35 -12 -76 -9
-246 -65 -238 -78 4 -7 -2 -5 -12 3 -10 8 -16 10 -12 3 9 -14 -22 -33 -50 -33
-12 1 -8 5 12 15 l30 14 -30 -6 c-16 -3 -33 -10 -36 -15 -3 -5 -14 -6 -25 -3
-10 4 -7 -1 9 -10 26 -15 34 -14 130 11 112 29 140 44 87 45 -32 1 -33 1 -10
8 14 4 39 11 55 15 29 7 29 7 10 -9 -20 -16 -19 -16 5 -10 14 4 40 9 58 12 19
3 36 12 39 19 3 8 14 14 24 14 10 0 19 4 19 8 0 5 12 13 28 19 15 6 20 11 12
11 -8 0 -22 -2 -30 -5z m-249 -105 c-14 -5 -29 -4 -39 3 -14 9 -14 10 5 6 13
-3 26 -1 29 4 3 5 10 6 16 3 7 -5 3 -11 -11 -16z"/>
<path d="M7406 6549 c3 -5 -3 -9 -12 -9 -10 0 -15 -3 -12 -6 3 -3 28 1 54 9
l49 15 -42 0 c-24 0 -40 -4 -37 -9z"/>
<path d="M7854 6552 c-6 -4 -8 -16 -4 -26 6 -18 7 -18 15 5 8 24 8 24 12 -6 2
-16 9 -42 15 -57 13 -35 37 -38 31 -3 -3 13 -10 23 -17 22 -7 -1 -10 12 -9 36
2 29 -1 37 -15 37 -9 0 -22 -4 -28 -8z"/>
<path d="M7348 6543 c7 -3 16 -2 19 1 4 3 -2 6 -13 5 -11 0 -14 -3 -6 -6z"/>
<path d="M7190 6525 c0 -8 2 -15 4 -15 2 0 6 7 10 15 3 8 1 15 -4 15 -6 0 -10
-7 -10 -15z"/>
<path d="M7278 6503 c7 -3 16 -2 19 1 4 3 -2 6 -13 5 -11 0 -14 -3 -6 -6z"/>
<path d="M7208 6483 c7 -3 16 -2 19 1 4 3 -2 6 -13 5 -11 0 -14 -3 -6 -6z"/>
<path d="M7168 6473 c7 -3 16 -2 19 1 4 3 -2 6 -13 5 -11 0 -14 -3 -6 -6z"/>
<path d="M7632 6442 c-43 -17 -51 -35 -16 -40 15 -3 16 -1 4 7 -12 8 -9 12 15
21 17 5 39 14 50 19 34 16 -7 10 -53 -7z"/>
<path d="M7857 6453 c-2 -5 -1 -19 4 -33 7 -23 7 -23 8 8 1 31 -3 40 -12 25z"/>
<path d="M7347 6423 c-15 -2 -32 -14 -38 -25 -10 -18 -9 -20 6 -14 10 3 38 11
62 18 31 7 41 13 31 19 -7 5 -17 8 -23 7 -5 0 -22 -3 -38 -5z"/>
<path d="M7233 6395 c-43 -18 -44 -40 -1 -31 36 7 60 24 52 37 -7 12 -13 11
-51 -6z m17 -15 c-20 -13 -33 -13 -25 0 3 6 14 10 23 10 15 0 15 -2 2 -10z"/>
<path d="M7465 6382 c-17 -10 -37 -17 -45 -15 -13 4 -13 3 0 -6 9 -6 18 -7 24
-1 6 6 19 10 31 10 17 -1 15 -4 -10 -17 -16 -10 -37 -16 -45 -14 -10 2 -12 -1
-5 -8 8 -7 22 -6 48 6 28 13 36 22 31 35 -6 19 11 25 19 8 3 -6 4 -5 3 2 -4
19 -19 19 -51 0z"/>
<path d="M7180 6371 c0 -7 -4 -9 -10 -6 -5 3 -10 1 -10 -4 0 -6 4 -11 9 -11
13 0 25 20 17 27 -3 4 -6 1 -6 -6z"/>
<path d="M7760 6360 c-13 -9 -13 -10 0 -9 8 1 26 5 40 9 l25 8 -25 1 c-14 0
-32 -4 -40 -9z"/>
<path d="M7340 6335 c-16 -19 -13 -22 25 -29 17 -3 42 -8 58 -12 16 -3 27 -1
27 5 0 6 -9 11 -19 11 -11 0 -23 5 -27 11 -3 6 -15 9 -25 6 -26 -7 -24 2 4 13
21 9 21 9 -4 9 -15 1 -32 -6 -39 -14z"/>
<path d="M7505 6340 c-4 -6 3 -10 14 -10 25 0 27 6 6 13 -8 4 -17 2 -20 -3z"/>
<path d="M7828 6343 c7 -3 16 -2 19 1 4 3 -2 6 -13 5 -11 0 -14 -3 -6 -6z"/>
<path d="M7768 6333 c6 -2 18 -2 25 0 6 3 1 5 -13 5 -14 0 -19 -2 -12 -5z"/>
<path d="M7468 6323 c7 -3 16 -2 19 1 4 3 -2 6 -13 5 -11 0 -14 -3 -6 -6z"/>
<path d="M7716 6311 c-3 -4 6 -6 19 -3 14 2 25 6 25 8 0 8 -39 4 -44 -5z"/>
<path d="M7203 6295 c-18 -8 -33 -16 -33 -19 0 -7 63 15 75 25 14 13 -5 10
-42 -6z"/>
<path d="M7581 6289 c11 -7 10 -9 -3 -9 -10 0 -18 -5 -18 -10 0 -7 6 -7 19 -1
10 6 22 7 26 3 5 -4 5 -2 2 5 -4 6 -1 13 5 16 7 2 0 4 -16 4 -19 0 -24 -2 -15
-8z"/>
<path d="M7648 6293 c7 -3 16 -2 19 1 4 3 -2 6 -13 5 -11 0 -14 -3 -6 -6z"/>
<path d="M7240 6280 c-9 -6 -10 -10 -3 -10 6 0 15 5 18 10 8 12 4 12 -15 0z"/>
<path d="M7255 6260 c-16 -7 -17 -9 -3 -9 9 -1 20 4 23 9 7 11 7 11 -20 0z"/>
<path d="M7753 6263 c9 -2 25 -2 35 0 9 3 1 5 -18 5 -19 0 -27 -2 -17 -5z"/>
<path d="M7141 6243 c-1 -13 -5 -23 -11 -23 -5 0 -10 -4 -10 -9 0 -5 9 -7 20
-4 22 6 23 9 10 38 -8 19 -9 19 -9 -2z"/>
<path d="M7173 6245 c0 -8 4 -15 9 -15 4 0 8 4 8 9 0 6 -4 12 -8 15 -5 3 -9
-1 -9 -9z"/>
<path d="M7640 6234 l-35 -14 35 5 c19 3 39 10 44 15 14 14 -2 12 -44 -6z"/>
<path d="M7390 6220 c8 -5 20 -10 25 -10 6 0 3 5 -5 10 -8 5 -19 10 -25 10 -5
0 -3 -5 5 -10z"/>
<path d="M7950 6220 c0 -6 -12 -10 -26 -10 l-26 0 23 -21 c17 -15 19 -19 7
-15 -10 3 -18 1 -18 -4 0 -6 7 -10 15 -10 10 0 15 -10 15 -29 0 -17 5 -33 10
-36 7 -4 9 9 5 37 -4 31 -3 38 4 23 l10 -20 0 20 c1 11 4 30 7 41 4 14 0 23
-10 27 -9 4 -16 2 -16 -3z"/>
<path d="M7367 6209 c7 -7 15 -10 18 -7 3 3 -2 9 -12 12 -14 6 -15 5 -6 -5z"/>
<path d="M7535 6205 c-22 -7 -102 -33 -178 -56 -96 -30 -133 -45 -120 -50 10
-4 25 -8 33 -8 9 0 7 4 -5 9 -17 6 -15 9 17 15 20 4 45 4 56 1 11 -4 32 -1 48
5 26 11 27 13 9 17 -29 7 79 41 130 42 30 0 36 3 25 10 -11 7 -2 9 30 5 41 -5
43 -4 25 10 -23 17 -19 17 -70 0z m-170 -75 c-3 -5 -12 -10 -18 -10 -7 0 -6 4
3 10 19 12 23 12 15 0z"/>
<path d="M7100 6159 c-8 -19 -13 -40 -12 -48 2 -8 -1 -10 -9 -5 -8 4 -10 3 -5
-5 6 -8 12 -9 20 -2 7 6 16 8 19 5 4 -4 4 10 2 30 -3 21 -1 35 3 32 12 -7 38
12 29 21 -5 4 -12 1 -16 -6 -7 -11 -9 -11 -13 0 -2 7 -11 -3 -18 -22z"/>
<path d="M7578 6173 c7 -3 16 -2 19 1 4 3 -2 6 -13 5 -11 0 -14 -3 -6 -6z"/>
<path d="M7628 6173 c7 -3 16 -2 19 1 4 3 -2 6 -13 5 -11 0 -14 -3 -6 -6z"/>
<path d="M7978 6140 c-8 -56 -6 -92 5 -81 4 4 7 35 5 67 l-3 59 -7 -45z"/>
<path d="M7678 6158 c6 -6 18 -8 28 -6 14 3 12 5 -9 10 -19 3 -25 2 -19 -4z"/>
<path d="M7749 6162 c9 -7 10 -11 2 -15 -7 -4 -8 -5 0 -4 15 3 13 21 -3 25
-10 3 -10 2 1 -6z"/>
<path d="M7868 6161 c10 -6 7 -10 -13 -15 -15 -4 -25 -9 -23 -12 3 -2 19 1 36
7 32 11 35 29 4 29 -13 0 -14 -2 -4 -9z"/>
<path d="M7788 6143 c7 -3 16 -2 19 1 4 3 -2 6 -13 5 -11 0 -14 -3 -6 -6z"/>
<path d="M7904 6136 c-3 -8 -15 -12 -27 -10 -20 4 -20 4 2 -6 26 -11 34 -8 37
15 3 19 -5 19 -12 1z"/>
<path d="M7688 6133 c6 -2 18 -2 25 0 6 3 1 5 -13 5 -14 0 -19 -2 -12 -5z"/>
<path d="M7775 6120 c11 -5 29 -8 40 -8 16 0 15 2 -5 8 -34 11 -60 11 -35 0z"/>
<path d="M7869 6094 c19 -8 38 -11 42 -7 5 5 1 9 -9 9 -9 0 -28 3 -42 7 -15 4
-11 1 9 -9z"/>
<path d="M7295 6090 c-3 -6 1 -7 9 -4 18 7 21 14 7 14 -6 0 -13 -4 -16 -10z"/>
<path d="M7053 6064 c-12 -26 -12 -26 7 -9 11 10 17 22 14 26 -7 12 -7 12 -21
-17z"/>
<path d="M7095 6075 c-4 -11 -10 -24 -13 -29 -3 -5 1 -6 9 -4 8 3 20 -2 27
-11 8 -9 10 -10 6 -2 -3 7 0 18 7 23 11 8 10 9 -3 4 -12 -3 -18 2 -21 17 -3
21 -4 21 -12 2z"/>
<path d="M7196 6043 c-6 -14 -5 -15 5 -6 7 7 10 15 7 18 -3 3 -9 -2 -12 -12z"/>
<path d="M7078 5993 c7 -3 16 -2 19 1 4 3 -2 6 -13 5 -11 0 -14 -3 -6 -6z"/>
<path d="M7590 4339 c-16 -10 -69 -31 -85 -34 -15 -4 -82 -45 -72 -45 4 0 20
6 35 14 16 8 58 24 95 36 37 12 67 23 67 25 0 9 -27 11 -40 4z"/>
<path d="M7613 4203 c9 -2 25 -2 35 0 9 3 1 5 -18 5 -19 0 -27 -2 -17 -5z"/>
<path d="M7228 4098 c-14 -5 -29 -16 -32 -25 -5 -13 -4 -14 9 -3 9 7 29 14 46
15 38 3 61 23 27 22 -13 0 -35 -4 -50 -9z"/>
<path d="M5654 7914 c-18 -14 -18 -14 6 -3 31 14 36 19 24 19 -6 0 -19 -7 -30
-16z"/>
<path d="M2830 7000 c8 -5 20 -10 25 -10 6 0 3 5 -5 10 -8 5 -19 10 -25 10 -5
0 -3 -5 5 -10z"/>
<path d="M2895 6961 c3 -5 -1 -12 -7 -14 -7 -3 -3 -6 10 -6 25 -1 30 14 6 23
-8 3 -13 2 -9 -3z"/>
<path d="M2681 6768 c-19 -5 -30 -13 -25 -16 5 -4 12 -11 15 -15 3 -4 16 4 29
18 13 14 22 25 19 24 -2 0 -19 -5 -38 -11z"/>
<path d="M2642 6726 c7 -8 15 -12 17 -11 5 6 -10 25 -20 25 -5 0 -4 -6 3 -14z"/>
<path d="M2535 6614 c-26 -13 -27 -14 -5 -10 23 5 23 4 7 -8 -17 -13 -16 -14
2 -19 14 -3 25 3 36 19 8 13 15 26 15 29 0 9 -24 4 -55 -11z"/>
<path d="M2460 6420 c11 -7 11 -10 2 -10 -7 0 -10 -5 -6 -11 4 -8 9 -7 15 2 9
15 3 29 -14 29 -7 0 -6 -4 3 -10z"/>
<path d="M2416 6404 c-4 -10 -2 -13 6 -8 7 5 9 2 6 -7 -4 -10 1 -15 12 -15 15
0 16 4 7 23 -12 27 -22 29 -31 7z"/>
<path d="M2400 6375 c0 -5 5 -17 10 -25 5 -8 10 -10 10 -5 0 6 -5 17 -10 25
-5 8 -10 11 -10 5z"/>
<path d="M2452 6320 c0 -14 2 -19 5 -12 2 6 2 18 0 25 -3 6 -5 1 -5 -13z"/>
<path d="M2430 6295 c0 -5 5 -17 10 -25 5 -8 10 -10 10 -5 0 6 -5 17 -10 25
-5 8 -10 11 -10 5z"/>
<path d="M2431 6234 c0 -11 3 -14 6 -6 3 7 2 16 -1 19 -3 4 -6 -2 -5 -13z"/>
<path d="M2390 6030 c-9 -6 -10 -10 -3 -10 6 0 15 5 18 10 8 12 4 12 -15 0z"/>
<path d="M2305 6011 c-7 -13 -9 -131 -1 -138 6 -6 7 12 10 105 1 45 0 47 -9
33z"/>
<path d="M2276 5835 c-3 -30 -9 -80 -12 -110 -4 -33 -3 -55 3 -55 6 0 13 48
17 106 7 114 3 151 -8 59z"/>
<path d="M2291 5764 c0 -11 3 -14 6 -6 3 7 2 16 -1 19 -3 4 -6 -2 -5 -13z"/>
<path d="M2365 5670 c-18 -8 -17 -9 8 -9 15 -1 27 4 27 9 0 12 -8 12 -35 0z"/>
<path d="M2267 5643 c-4 -3 -7 -11 -7 -17 0 -6 5 -5 12 2 6 6 9 14 7 17 -3 3
-9 2 -12 -2z"/>
<path d="M2365 5540 c-3 -5 -2 -10 4 -10 5 0 13 5 16 10 3 6 2 10 -4 10 -5 0
-13 -4 -16 -10z"/>
<path d="M2268 5383 c7 -3 16 -2 19 1 4 3 -2 6 -13 5 -11 0 -14 -3 -6 -6z"/>
<path d="M2290 5190 c0 -5 5 -10 11 -10 5 0 7 5 4 10 -3 6 -8 10 -11 10 -2 0
-4 -4 -4 -10z"/>
<path d="M2265 5170 c3 -5 8 -10 11 -10 2 0 4 5 4 10 0 6 -5 10 -11 10 -5 0
-7 -4 -4 -10z"/>
<path d="M2477 5173 c-4 -3 3 -13 15 -21 21 -15 21 -16 2 -23 -15 -6 -16 -8
-3 -8 9 -1 23 7 30 16 8 10 9 14 2 10 -6 -4 -18 1 -26 13 -7 11 -17 17 -20 13z"/>
<path d="M2303 5163 c-7 -2 -13 -12 -14 -21 0 -11 -2 -12 -6 -4 -8 21 -22 13
-19 -13 3 -28 16 -47 16 -23 0 11 6 14 20 11 16 -4 19 -1 17 26 -1 17 -2 31
-2 30 0 0 -6 -3 -12 -6z"/>
<path d="M2388 5123 c7 -3 12 -24 12 -54 l0 -49 75 0 c45 0 75 4 75 10 0 7 5
6 13 -1 7 -7 12 -26 10 -43 -2 -19 0 -25 4 -16 5 8 13 16 20 17 14 3 28 -59
19 -84 -5 -13 -4 -15 4 -7 12 12 3 144 -10 144 -5 0 -6 8 -4 18 2 10 -10 28
-32 46 -32 27 -36 27 -53 12 -14 -12 -24 -14 -47 -7 -32 10 -106 23 -86 14z
m187 -53 c-3 -5 -1 -10 6 -10 7 0 10 -3 6 -6 -9 -9 -28 6 -22 17 4 5 8 9 11 9
3 0 2 -4 -1 -10z"/>
<path d="M2290 5079 c0 -5 5 -7 10 -4 6 3 10 8 10 11 0 2 -4 4 -10 4 -5 0 -10
-5 -10 -11z"/>
<path d="M2263 5054 c0 -23 1 -24 9 -10 7 12 7 21 0 28 -6 6 -9 0 -9 -18z"/>
<path d="M2271 4984 c0 -11 3 -14 6 -6 3 7 2 16 -1 19 -3 4 -6 -2 -5 -13z"/>
<path d="M2301 4954 c0 -11 3 -14 6 -6 3 7 2 16 -1 19 -3 4 -6 -2 -5 -13z"/>
<path d="M2286 4935 c3 -16 6 -43 6 -58 1 -19 4 -25 11 -18 7 7 5 26 -7 58 -9
26 -14 35 -10 18z"/>
<path d="M2577 4890 c-3 -11 -1 -20 4 -20 5 0 9 9 9 20 0 11 -2 20 -4 20 -2 0
-6 -9 -9 -20z"/>
<path d="M2510 4870 c8 -5 22 -9 30 -9 10 0 8 3 -5 9 -27 12 -43 12 -25 0z"/>
<path d="M2458 4843 c7 -3 16 -2 19 1 4 3 -2 6 -13 5 -11 0 -14 -3 -6 -6z"/>
<path d="M2408 4833 c7 -3 16 -2 19 1 4 3 -2 6 -13 5 -11 0 -14 -3 -6 -6z"/>
<path d="M2565 4813 c-38 -13 -81 -26 -95 -29 -45 -9 -118 -36 -138 -50 -2 -1
3 -15 12 -31 l15 -28 -2 30 c-2 25 2 30 23 32 14 1 18 0 8 -3 -10 -3 -18 -13
-18 -22 0 -15 2 -15 10 -2 5 8 10 11 10 5 0 -5 7 -1 15 9 11 15 26 19 59 18
25 -1 48 2 51 8 3 5 15 10 26 10 10 0 19 6 19 14 0 8 4 18 10 21 5 3 7 0 4 -9
-7 -17 12 -56 28 -56 6 0 5 6 -3 17 -11 13 -11 17 -1 20 6 3 12 11 12 19 0 9
5 12 13 8 6 -4 9 -4 5 1 -4 4 -3 14 4 22 18 22 7 22 -67 -4z m-38 -40 c-12
-12 -36 -18 -75 -19 -43 -1 -51 1 -33 7 13 5 33 7 44 3 13 -4 17 -2 13 5 -4 6
-2 9 6 6 8 -3 22 1 33 9 26 19 34 11 12 -11z"/>
<path d="M2381 4667 c-1 -16 -5 -26 -11 -22 -5 3 -10 2 -10 -4 0 -5 4 -13 10
-16 11 -7 24 38 17 57 -3 7 -6 0 -6 -15z"/>
<path d="M2586 4668 c-3 -13 -2 -26 2 -30 4 -4 8 6 9 23 3 35 -2 38 -11 7z"/>
<path d="M2572 4616 c7 -8 15 -12 17 -11 5 6 -10 25 -20 25 -5 0 -4 -6 3 -14z"/>
<path d="M2488 4613 c7 -3 16 -2 19 1 4 3 -2 6 -13 5 -11 0 -14 -3 -6 -6z"/>
<path d="M2488 4593 c6 -2 18 -2 25 0 6 3 1 5 -13 5 -14 0 -19 -2 -12 -5z"/>
<path d="M2545 4530 c-16 -4 -22 -8 -12 -9 9 0 17 -6 17 -12 0 -18 43 -5 46
14 2 18 -4 19 -51 7z"/>
<path d="M2499 4512 c-1 -4 -1 -10 0 -14 2 -12 -17 -9 -21 3 -2 7 -14 6 -38
-3 l-35 -15 68 0 c37 0 67 0 67 1 0 6 -40 34 -41 28z"/>
<path d="M2571 4444 c0 -11 3 -14 6 -6 3 7 2 16 -1 19 -3 4 -6 -2 -5 -13z"/>
<path d="M2620 4455 c0 -5 5 -17 10 -25 5 -8 10 -10 10 -5 0 6 -5 17 -10 25
-5 8 -10 11 -10 5z"/>
<path d="M4231 7524 c0 -11 3 -14 6 -6 3 7 2 16 -1 19 -3 4 -6 -2 -5 -13z"/>
<path d="M3875 7290 c21 -80 54 -139 93 -165 20 -14 40 -25 43 -25 10 0 -2 92
-16 120 -15 29 -109 120 -124 120 -5 0 -4 -21 4 -50z"/>
<path d="M4591 7114 c0 -11 3 -14 6 -6 3 7 2 16 -1 19 -3 4 -6 -2 -5 -13z"/>
<path d="M5092 5703 c-20 -30 -39 -75 -24 -58 15 17 54 85 48 85 -2 0 -13 -12
-24 -27z"/>
<path d="M5522 5600 c0 -14 2 -19 5 -12 2 6 2 18 0 25 -3 6 -5 1 -5 -13z"/>
<path d="M4892 5365 c0 -16 2 -22 5 -12 2 9 2 23 0 30 -3 6 -5 -1 -5 -18z"/>
<path d="M5015 4868 c2 -52 30 -88 56 -72 7 4 -47 94 -56 94 0 0 -1 -10 0 -22z
m48 -68 c-6 -6 -43 38 -43 52 0 5 11 -4 24 -19 13 -15 22 -30 19 -33z"/>
<path d="M5292 4740 c0 -14 2 -19 5 -12 2 6 2 18 0 25 -3 6 -5 1 -5 -13z"/>
<path d="M6938 5517 c-26 -12 -48 -27 -48 -34 0 -7 -7 -10 -15 -7 -8 3 -36 -2
-62 -12 -59 -22 -58 -21 -45 -36 5 -7 25 -40 42 -73 18 -33 36 -63 40 -68 8
-9 161 21 175 34 6 6 5 17 -4 32 -14 22 -14 22 8 3 11 -11 21 -15 21 -10 0 9
-31 93 -56 149 -7 16 -10 33 -8 37 6 10 9 11 -48 -15z m42 -5 c0 -5 -7 -9 -15
-9 -8 0 -12 4 -9 9 3 4 9 8 15 8 5 0 9 -4 9 -8z"/>
<path d="M6540 5330 c-9 -6 -10 -10 -3 -10 6 0 15 5 18 10 8 12 4 12 -15 0z"/>
<path d="M6308 5313 c6 -2 10 -8 7 -13 -3 -4 5 -6 17 -2 21 5 21 6 2 13 -10 4
-23 8 -29 8 -5 -1 -4 -3 3 -6z"/>
<path d="M6490 5303 c-13 -15 -12 -16 4 -10 10 4 20 7 22 7 2 0 4 5 4 10 0 15
-13 12 -30 -7z"/>
<path d="M6540 5305 c0 -7 30 -13 34 -7 3 4 -4 9 -15 9 -10 1 -19 0 -19 -2z"/>
<path d="M5728 5093 c6 -2 18 -2 25 0 6 3 1 5 -13 5 -14 0 -19 -2 -12 -5z"/>
<path d="M6580 5080 c0 -5 5 -10 11 -10 5 0 7 5 4 10 -3 6 -8 10 -11 10 -2 0
-4 -4 -4 -10z"/>
<path d="M5745 5070 c-3 -5 -1 -10 4 -10 6 0 11 5 11 10 0 6 -2 10 -4 10 -3 0
-8 -4 -11 -10z"/>
<path d="M6600 5051 c0 -6 4 -13 10 -16 6 -3 7 1 4 9 -7 18 -14 21 -14 7z"/>
<path d="M5355 5020 c3 -5 8 -10 11 -10 2 0 4 5 4 10 0 6 -5 10 -11 10 -5 0
-7 -4 -4 -10z"/>
<path d="M5675 5000 c-3 -6 1 -7 9 -4 18 7 21 14 7 14 -6 0 -13 -4 -16 -10z"/>
<path d="M5406 4954 c-8 -22 -8 -26 4 -19 6 3 10 -1 10 -9 0 -9 7 -16 16 -16
14 0 14 2 -1 16 -9 9 -14 23 -11 30 3 8 1 14 -3 14 -5 0 -12 -7 -15 -16z"/>
<path d="M6699 4878 c0 -2 -2 -11 -4 -21 -3 -15 -1 -16 11 -6 7 6 11 15 8 20
-5 9 -13 12 -15 7z"/>
<path d="M6740 4829 c0 -6 8 -18 17 -27 16 -16 16 -16 10 1 -4 10 -7 23 -7 28
0 5 -4 9 -10 9 -5 0 -10 -5 -10 -11z"/>
<path d="M7675 5390 c-3 -6 1 -7 9 -4 18 7 21 14 7 14 -6 0 -13 -4 -16 -10z"/>
<path d="M7653 5368 c7 -5 0 -8 -18 -9 -24 -1 -25 -3 -7 -6 12 -2 22 -8 22
-13 0 -14 -32 -21 -47 -9 -7 7 -16 9 -20 5 -3 -3 0 -6 8 -6 12 0 11 -2 -1 -11
-13 -9 -13 -10 0 -6 8 2 23 0 33 -5 12 -6 19 -5 23 7 4 9 13 14 20 11 7 -3 16
4 19 15 4 11 16 24 28 29 17 6 10 8 -25 7 -26 -1 -42 -5 -35 -9z m27 -18 c0
-5 -4 -10 -10 -10 -5 0 -10 5 -10 10 0 6 5 10 10 10 6 0 10 -4 10 -10z"/>
<path d="M7779 5333 c-13 -16 -12 -17 4 -4 9 7 17 15 17 17 0 8 -8 3 -21 -13z"/>
<path d="M7640 5261 c0 -5 7 -11 15 -15 8 -3 15 -1 15 3 0 5 -7 11 -15 15 -8
3 -15 1 -15 -3z"/>
<path d="M7580 5240 c-9 -6 -10 -10 -3 -10 6 0 15 5 18 10 8 12 4 12 -15 0z"/>
<path d="M7808 5243 c7 -3 16 -2 19 1 4 3 -2 6 -13 5 -11 0 -14 -3 -6 -6z"/>
<path d="M7773 5143 c-3 -10 -8 -22 -11 -27 -3 -5 0 -6 5 -3 11 7 25 47 17 47
-3 0 -7 -8 -11 -17z"/>
<path d="M7801 5134 c0 -11 3 -14 6 -6 3 7 2 16 -1 19 -3 4 -6 -2 -5 -13z"/>
<path d="M3863 5153 c9 -2 23 -2 30 0 6 3 -1 5 -18 5 -16 0 -22 -2 -12 -5z"/>
<path d="M3798 5143 c7 -3 16 -2 19 1 4 3 -2 6 -13 5 -11 0 -14 -3 -6 -6z"/>
<path d="M3928 5133 c7 -3 16 -2 19 1 4 3 -2 6 -13 5 -11 0 -14 -3 -6 -6z"/>
<path d="M3788 5117 c11 -13 10 -17 -4 -25 -9 -5 -13 -11 -8 -14 5 -3 16 3 25
12 15 16 14 18 -5 30 -19 12 -20 12 -8 -3z"/>
<path d="M3868 5123 c6 -2 18 -2 25 0 6 3 1 5 -13 5 -14 0 -19 -2 -12 -5z"/>
<path d="M3496 4830 c-9 -22 -15 -50 -15 -63 1 -19 2 -19 6 -3 4 15 7 16 15 5
8 -11 9 -10 4 4 -3 11 -3 24 1 30 6 10 13 67 8 67 -2 0 -10 -18 -19 -40z"/>
<path d="M7300 5125 c-6 -8 -10 -20 -7 -27 3 -7 6 -4 6 7 1 16 3 17 11 5 7
-12 9 -10 7 8 -2 26 -1 26 -17 7z"/>
<path d="M6145 4873 c-16 -8 -31 -17 -32 -18 -5 -3 32 -85 38 -85 3 0 18 13
34 30 26 27 27 31 15 60 -14 34 -15 35 -55 13z"/>
<path d="M5938 4778 c-16 -12 -16 -16 2 -57 11 -24 20 -50 20 -59 0 -12 9 -8
31 15 l32 31 -19 38 c-21 42 -40 52 -66 32z"/>
<path d="M3740 4510 c-13 -8 -12 -10 3 -10 9 0 17 5 17 10 0 12 -1 12 -20 0z"/>
<path d="M3355 4341 c-3 -5 -2 -12 3 -15 5 -3 9 1 9 9 0 17 -3 19 -12 6z"/>
<path d="M3326 4331 c-3 -5 1 -11 9 -14 9 -4 12 -1 8 9 -6 16 -10 17 -17 5z"/>
<path d="M3385 4330 c3 -5 8 -10 11 -10 2 0 4 5 4 10 0 6 -5 10 -11 10 -5 0
-7 -4 -4 -10z"/>
<path d="M3306 4113 c15 -27 20 -30 27 -17 5 8 6 18 3 21 -3 4 -6 1 -6 -6 0
-7 -9 -3 -21 10 l-20 24 17 -32z"/>
<path d="M3293 3933 c9 -2 25 -2 35 0 9 3 1 5 -18 5 -19 0 -27 -2 -17 -5z"/>
<path d="M3312 3893 c6 -16 18 -35 25 -43 7 -8 4 4 -7 28 -23 47 -36 58 -18
15z"/>
<path d="M3336 3908 c3 -5 10 -6 15 -3 13 9 11 12 -6 12 -8 0 -12 -4 -9 -9z"/>
<path d="M3708 3623 c7 -3 16 -2 19 1 4 3 -2 6 -13 5 -11 0 -14 -3 -6 -6z"/>
<path d="M3748 3613 c6 -2 18 -2 25 0 6 3 1 5 -13 5 -14 0 -19 -2 -12 -5z"/>
<path d="M3675 3331 c6 -5 24 -13 40 -17 39 -9 30 0 -15 15 -19 6 -30 7 -25 2z"/>
<path d="M3738 3333 c7 -3 16 -2 19 1 4 3 -2 6 -13 5 -11 0 -14 -3 -6 -6z"/>
<path d="M3758 3303 c7 -3 16 -2 19 1 4 3 -2 6 -13 5 -11 0 -14 -3 -6 -6z"/>
<path d="M3798 3293 c6 -2 18 -2 25 0 6 3 1 5 -13 5 -14 0 -19 -2 -12 -5z"/>
<path d="M4770 4906 c0 -2 8 -10 18 -17 15 -13 16 -12 3 4 -13 16 -21 21 -21
13z"/>
<path d="M4817 4836 c-3 -8 0 -20 8 -26 18 -15 26 1 10 23 -10 15 -14 15 -18
3z"/>
<path d="M4780 4820 c-9 -6 -10 -10 -3 -10 6 0 15 5 18 10 8 12 4 12 -15 0z"/>
<path d="M4073 4621 c-28 -4 -54 -9 -57 -12 -10 -9 93 -1 111 10 10 6 14 10 8
9 -5 0 -33 -4 -62 -7z"/>
<path d="M4180 4565 c0 -2 10 -10 23 -16 20 -11 21 -11 8 4 -13 16 -31 23 -31
12z"/>
<path d="M3115 4059 c-4 -6 -5 -12 -2 -15 2 -3 7 2 10 11 7 17 1 20 -8 4z"/>
<path d="M3140 4016 c0 -2 8 -10 18 -17 15 -13 16 -12 3 4 -13 16 -21 21 -21
13z"/>
<path d="M3990 4433 c-19 -8 -48 -21 -65 -29 -16 -7 -42 -18 -56 -23 l-26 -9
33 -69 c18 -37 33 -74 34 -80 0 -16 13 -16 75 1 54 14 116 43 126 59 4 5 -2
18 -12 28 -14 14 -18 27 -13 47 4 18 3 23 -4 14 -7 -10 -14 -2 -28 32 -11 25
-21 46 -24 45 -3 0 -21 -7 -40 -16z"/>
<path d="M4065 4421 c-3 -5 -2 -12 3 -15 5 -3 9 1 9 9 0 17 -3 19 -12 6z"/>
<path d="M3144 3596 c11 -9 27 -16 35 -15 14 0 14 1 1 6 -8 3 -24 10 -35 15
-20 9 -20 9 -1 -6z"/>
<path d="M3140 3568 c19 -5 40 -14 47 -19 7 -7 13 -6 17 0 6 10 -55 32 -84 30
-8 0 1 -5 20 -11z"/>
<path d="M4210 4048 c-18 -99 -4 -138 49 -138 32 0 56 23 66 61 9 36 -35 79
-81 79 -19 0 -34 -1 -34 -2z m35 -48 c-3 -5 -11 -10 -16 -10 -6 0 -7 5 -4 10
3 6 11 10 16 10 6 0 7 -4 4 -10z"/>
<path d="M6615 2570 c3 -5 8 -10 11 -10 2 0 4 5 4 10 0 6 -5 10 -11 10 -5 0
-7 -4 -4 -10z"/>
<path d="M4379 3633 c-1 -5 -1 -12 0 -16 1 -5 -3 -6 -8 -3 -16 11 -40 -5 -34
-22 4 -13 3 -14 -5 -3 -8 11 -20 10 -68 -8 -33 -12 -64 -24 -71 -26 -8 -3 0
-29 25 -80 l37 -77 38 6 c123 20 189 49 172 76 -6 9 -9 9 -16 -1 -7 -11 -9
-10 -9 4 0 9 6 17 13 17 6 0 4 5 -6 11 -12 7 -15 17 -11 36 5 18 3 24 -5 19
-6 -4 -11 -1 -11 8 0 9 6 16 13 16 6 0 1 6 -13 13 -14 8 -24 19 -22 25 1 7 -2
12 -8 12 -5 0 -11 -3 -11 -7z"/>
<path d="M2900 2900 c0 -6 7 -10 15 -10 8 0 15 2 15 4 0 2 -7 6 -15 10 -8 3
-15 1 -15 -4z"/>
<path d="M2900 2449 c0 -5 5 -7 10 -4 6 3 10 8 10 11 0 2 -4 4 -10 4 -5 0 -10
-5 -10 -11z"/>
<path d="M4323 2700 c-12 -5 -26 -18 -32 -29 -12 -21 -15 -171 -4 -210 6 -23
9 -23 69 -18 69 7 118 27 128 52 3 9 6 54 6 99 0 103 -11 116 -91 115 -30 0
-64 -4 -76 -9z"/>
<path d="M3730 2260 c0 -5 5 -10 11 -10 5 0 7 5 4 10 -3 6 -8 10 -11 10 -2 0
-4 -4 -4 -10z"/>
<path d="M3655 1640 c3 -5 8 -10 11 -10 2 0 4 5 4 10 0 6 -5 10 -11 10 -5 0
-7 -4 -4 -10z"/>
</g>
</svg>
